<svg width="28" height="28" viewBox="0 0 28 28" fill="none" xmlns="http://www.w3.org/2000/svg">
<g clip-path="url(#clip0_1936_1128)">
<path d="M0 0H23.52C24.7082 0 25.8477 0.471999 26.6878 1.31216C27.528 2.15232 28 3.29183 28 4.48V23.52C28 24.7082 27.528 25.8477 26.6878 26.6878C25.8477 27.528 24.7082 28 23.52 28H4.48C3.29183 28 2.15232 27.528 1.31216 26.6878C0.471999 25.8477 0 24.7082 0 23.52L0 0Z" fill="#663399"/>
<path d="M22.8627 25.7564C21.9558 25.7564 21.2622 25.4927 20.7767 24.9626C20.2965 24.4298 20.0464 23.6696 20.024 22.6767H21.9784C21.9896 23.5548 22.2982 23.9949 22.9047 23.9949C23.2138 23.9949 23.4328 23.8969 23.559 23.7032C23.6825 23.51 23.7472 23.2011 23.7472 22.7778C23.7472 22.4412 23.6629 22.1607 23.5 21.9392C23.2788 21.6757 22.995 21.4722 22.6745 21.3473L21.9502 20.9992C21.3045 20.6907 20.8355 20.3261 20.5462 19.8997C20.2654 19.476 20.1251 18.8816 20.1251 18.1217C20.1251 17.2716 20.3724 16.5817 20.8635 16.0513C21.3689 15.5213 22.0568 15.2578 22.9355 15.2578C23.7839 15.2578 24.4408 15.5185 24.9039 16.0373C25.3757 16.5593 25.6226 17.3052 25.6425 18.2813H23.7612C23.7724 17.9621 23.708 17.6451 23.573 17.3556C23.4666 17.1428 23.2586 17.0361 22.9498 17.0361C22.3996 17.0361 22.1243 17.364 22.1243 18.0175C22.1243 18.3487 22.1915 18.6066 22.3265 18.8029C22.5209 19.0201 22.7645 19.1875 23.0368 19.2912L23.7304 19.597C24.4464 19.9251 24.963 20.3264 25.2802 20.8116C25.6002 21.2941 25.7576 21.9392 25.7576 22.747C25.7576 23.7147 25.5048 24.4578 24.991 24.9766C24.48 25.4955 23.7693 25.7564 22.8627 25.7564ZM16.5509 25.7564C15.6437 25.7564 14.9504 25.4927 14.4646 24.9626C13.9844 24.4298 13.7347 23.6696 13.7123 22.6767H15.6664C15.6776 23.5548 15.9864 23.9949 16.5932 23.9949C16.9018 23.9949 17.1207 23.8969 17.2442 23.7032C17.3708 23.51 17.4324 23.2011 17.4324 22.7778C17.4324 22.4412 17.3512 22.1607 17.1882 21.9392C16.9671 21.6757 16.6832 21.4722 16.3628 21.3473L15.6384 20.9992C14.9924 20.6907 14.5237 20.3261 14.2345 19.8997C13.9536 19.476 13.8134 18.8816 13.8134 18.1217C13.8134 17.2716 14.0603 16.5817 14.5517 16.0513C15.0571 15.5213 15.7451 15.2578 16.6237 15.2578C17.4718 15.2578 18.1287 15.5185 18.5893 16.0373C19.0667 16.5593 19.3109 17.3052 19.3305 18.2813H17.4494C17.4606 17.9621 17.3962 17.6451 17.2613 17.3556C17.1546 17.1428 16.9468 17.0361 16.638 17.0361C16.0875 17.0361 15.8123 17.364 15.8123 18.0175C15.8123 18.3487 15.8798 18.6066 16.0144 18.8029C16.2088 19.0201 16.4524 19.1875 16.7248 19.2912L17.4184 19.597C18.1343 19.9251 18.6509 20.3264 18.9684 20.8116C19.2857 21.2941 19.4456 21.9392 19.4456 22.747C19.4456 23.7147 19.1902 24.4578 18.6792 24.9766C18.1682 25.4955 17.4578 25.7564 16.5509 25.7564ZM9.97793 25.7564C9.09033 25.7564 8.38585 25.5151 7.86365 25.0326C7.34145 24.5533 7.08301 23.8323 7.08301 22.8786V18.1665C7.08301 17.2187 7.35825 16.5005 7.90845 16.0068C8.46733 15.5188 9.20009 15.2721 10.107 15.2721C10.9859 15.2721 11.6792 15.5244 12.193 16.0236C12.7127 16.5257 12.9736 17.2719 12.9736 18.2675V18.6405H10.9044V18.2787C10.9044 17.8946 10.8202 17.6112 10.6572 17.4261C10.586 17.3336 10.494 17.2592 10.3886 17.209C10.2832 17.1587 10.1674 17.1341 10.0507 17.1372C9.71389 17.1372 9.47533 17.252 9.34037 17.4849C9.19672 17.8072 9.13221 18.1591 9.15221 18.5114V22.6067C9.15221 23.4621 9.45293 23.8969 10.051 23.9053C10.3316 23.9053 10.5421 23.8043 10.6883 23.6024C10.847 23.3474 10.9226 23.0493 10.9044 22.7495V22.444H12.9736V22.7638C12.9736 23.4285 12.8446 23.9837 12.5833 24.427C12.335 24.8595 11.9623 25.2074 11.5137 25.4255C11.0346 25.6541 10.5087 25.7675 9.97793 25.7564Z" fill="white"/>
</g>
<defs>
<clipPath id="clip0_1936_1128">
<rect width="28" height="28" fill="white"/>
</clipPath>
</defs>
</svg>
