<svg width="28" height="28" viewBox="0 0 28 28" fill="none" xmlns="http://www.w3.org/2000/svg">
<path d="M9.04167 27.9993C11.6177 27.9993 13.7083 25.9087 13.7083 23.3327V18.666H9.04167C6.46567 18.666 4.375 20.7567 4.375 23.3327C4.375 25.9087 6.46567 27.9993 9.04167 27.9993Z" fill="#0ACF83"/>
<path d="M4.375 14.0007C4.375 11.4247 6.46567 9.33398 9.04167 9.33398H13.7083V18.6673H9.04167C6.46567 18.6673 4.375 16.5767 4.375 14.0007Z" fill="#A259FF"/>
<path d="M4.375 4.66667C4.375 2.09067 6.46567 0 9.04167 0H13.7083V9.33333H9.04167C6.46567 9.33333 4.375 7.24267 4.375 4.66667Z" fill="#F24E1E"/>
<path d="M13.708 0H18.3747C20.9507 0 23.0413 2.09067 23.0413 4.66667C23.0413 7.24267 20.9507 9.33333 18.3747 9.33333H13.708V0Z" fill="#FF7262"/>
<path d="M23.0413 14.0007C23.0413 16.5767 20.9507 18.6673 18.3747 18.6673C15.7987 18.6673 13.708 16.5767 13.708 14.0007C13.708 11.4247 15.7987 9.33398 18.3747 9.33398C20.9507 9.33398 23.0413 11.4247 23.0413 14.0007Z" fill="#1ABCFE"/>
</svg>
