<svg width="28" height="28" viewBox="0 0 28 28" fill="none" xmlns="http://www.w3.org/2000/svg">
<g clip-path="url(#clip0_1936_1132)">
<path d="M0 0H28V28H0" fill="#F7DF1E"/>
<path d="M17.7188 20.2344C18.3385 21.2917 19.1589 21.8203 20.1797 21.8203C21.4557 21.8203 22.0938 21.3281 22.0938 20.3438C22.0938 19.7422 21.2734 19.1953 19.9609 18.6484C17.5182 17.8464 16.3151 16.4792 16.3516 14.5469C16.3516 12.5781 17.8281 11.0469 20.1797 11.0469C21.9297 11.0469 23.1693 11.7578 23.8984 13.1797L21.875 14.4922C21.4375 13.6901 20.8724 13.3073 20.1797 13.3438C19.3776 13.3802 18.9583 13.763 18.9219 14.4922C18.9219 15.2578 19.4141 15.5859 21.0547 16.2969C23.4062 17.2266 24.7188 18.2656 24.7188 20.5078C24.6094 22.8776 23.1693 24.099 20.3984 24.1719C18.1016 24.1719 16.4792 23.2786 15.5312 21.4922L17.7188 20.2344ZM8.42188 20.4531C8.85938 21.1641 9.13281 21.8203 10.2266 21.8203C11.1016 21.8203 11.5391 21.2734 11.5391 20.1797V11.1016H14.1641V20.0703C14.1276 22.6589 12.8151 23.9714 10.2266 24.0078C8.29427 23.9714 6.98177 23.1693 6.28906 21.6016L8.42188 20.4531Z" fill="black"/>
</g>
<defs>
<clipPath id="clip0_1936_1132">
<rect width="28" height="28" fill="white"/>
</clipPath>
</defs>
</svg>
