<svg width="28" height="28" viewBox="0 0 28 28" fill="none" xmlns="http://www.w3.org/2000/svg">
<g clip-path="url(#clip0_1936_1198)">
<mask id="mask0_1936_1198" style="mask-type:luminance" maskUnits="userSpaceOnUse" x="-1" y="5" width="29" height="18">
<path d="M-0.4375 5.6875H27.5625V22.3125H-0.4375V5.6875Z" fill="white"/>
</mask>
<g mask="url(#mask0_1936_1198)">
<path fill-rule="evenodd" clip-rule="evenodd" d="M13.5625 5.6875C9.82917 5.6875 7.49583 7.53472 6.5625 11.2292C7.9625 9.38194 9.59583 8.68924 11.4625 9.15104C12.5275 9.41427 13.2887 10.1793 14.1313 11.0255C15.5038 12.4042 17.0926 14 20.5625 14C24.2958 14 26.6292 12.1528 27.5625 8.45833C26.1625 10.3056 24.5292 10.9983 22.6625 10.5365C21.5975 10.2732 20.8363 9.50817 19.9937 8.66204C18.6212 7.28329 17.0324 5.6875 13.5625 5.6875ZM6.5625 14C2.82917 14 0.495833 15.8472 -0.4375 19.5417C0.9625 17.6944 2.59583 17.0017 4.4625 17.4635C5.52754 17.7273 6.28872 18.4918 7.13131 19.338C8.50383 20.7167 10.0926 22.3125 13.5625 22.3125C17.2958 22.3125 19.6292 20.4653 20.5625 16.7708C19.1625 18.6181 17.5292 19.3108 15.6625 18.849C14.5975 18.5857 13.8363 17.8207 12.9937 16.9745C11.6212 15.5958 10.0324 14 6.5625 14Z" fill="#38BDF8"/>
</g>
</g>
<defs>
<clipPath id="clip0_1936_1198">
<rect width="28" height="28" fill="white"/>
</clipPath>
</defs>
</svg>
