<svg width="28" height="28" viewBox="0 0 28 28" fill="none" xmlns="http://www.w3.org/2000/svg">
<g clip-path="url(#clip0_1936_1164)">
<path d="M0 14V28H28V0H0V14Z" fill="#007ACC"/>
<path d="M6.19148 14.0929L6.18262 15.2394H9.82699V25.5951H12.405V15.2394H16.0493V14.1151C16.0493 13.4927 16.036 12.9728 16.0183 12.9594C16.0049 12.9417 13.7871 12.9327 11.0983 12.9372L6.20493 12.9506L6.19159 14.0928L6.19148 14.0929ZM22.5929 12.918C23.304 13.0958 23.8462 13.4112 24.344 13.9268C24.6018 14.2025 24.984 14.7047 25.0151 14.8247C25.0239 14.8602 23.8062 15.678 23.0685 16.1358C23.0418 16.1536 22.935 16.038 22.8151 15.8602C22.4551 15.3358 22.0773 15.1091 21.4995 15.0692C20.6507 15.0113 20.104 15.4558 20.1085 16.1979C20.1085 16.4158 20.1395 16.5446 20.2284 16.7225C20.4151 17.1091 20.7618 17.3402 21.8507 17.8113C23.8551 18.6736 24.7128 19.2425 25.2462 20.0513C25.8418 20.9536 25.9751 22.3936 25.5706 23.4647C25.1263 24.6291 24.0241 25.4203 22.4728 25.6825C21.9929 25.7669 20.8552 25.7536 20.3396 25.6603C19.2152 25.4602 18.1485 24.9047 17.4907 24.1758C17.2329 23.8913 16.7306 23.1491 16.7618 23.0957C16.7751 23.078 16.8906 23.0069 17.0195 22.9314C17.144 22.8603 17.6151 22.589 18.0595 22.3313L18.864 21.8646L19.0329 22.1136C19.2685 22.4735 19.7839 22.9669 20.0951 23.1313C20.9884 23.6025 22.2151 23.5358 22.8195 22.9935C23.0773 22.758 23.184 22.5135 23.184 22.1535C23.184 21.8291 23.1439 21.6869 22.9751 21.4425C22.7574 21.1314 22.3129 20.8691 21.0506 20.3225C19.6062 19.7002 18.984 19.3136 18.4151 18.7002C18.0862 18.3447 17.7751 17.7757 17.6462 17.3002C17.5396 16.9047 17.5128 15.9135 17.5973 15.5135C17.8951 14.1179 18.9484 13.1447 20.4684 12.8557C20.9617 12.7624 22.1084 12.7979 22.5929 12.918Z" fill="white"/>
</g>
<defs>
<clipPath id="clip0_1936_1164">
<rect width="28" height="28" fill="white"/>
</clipPath>
</defs>
</svg>
