<svg width="17" height="16" viewBox="0 0 17 16" fill="none" xmlns="http://www.w3.org/2000/svg">
<g clip-path="url(#clip0_788_248)">
<mask id="mask0_788_248" style="mask-type:luminance" maskUnits="userSpaceOnUse" x="0" y="0" width="17" height="16">
<path d="M16.5 0H0.5V16H16.5V0Z" fill="white"/>
</mask>
<g mask="url(#mask0_788_248)">
<path d="M8.5 16C12.9183 16 16.5 12.4183 16.5 8C16.5 3.58172 12.9183 0 8.5 0C4.08172 0 0.5 3.58172 0.5 8C0.5 12.4183 4.08172 16 8.5 16Z" fill="#7D2AE7"/>
<path d="M8.5 16C12.9183 16 16.5 12.4183 16.5 8C16.5 3.58172 12.9183 0 8.5 0C4.08172 0 0.5 3.58172 0.5 8C0.5 12.4183 4.08172 16 8.5 16Z" fill="url(#paint0_radial_788_248)"/>
<path d="M8.5 16C12.9183 16 16.5 12.4183 16.5 8C16.5 3.58172 12.9183 0 8.5 0C4.08172 0 0.5 3.58172 0.5 8C0.5 12.4183 4.08172 16 8.5 16Z" fill="url(#paint1_radial_788_248)"/>
<path d="M8.5 16C12.9183 16 16.5 12.4183 16.5 8C16.5 3.58172 12.9183 0 8.5 0C4.08172 0 0.5 3.58172 0.5 8C0.5 12.4183 4.08172 16 8.5 16Z" fill="url(#paint2_radial_788_248)"/>
<path d="M8.5 16C12.9183 16 16.5 12.4183 16.5 8C16.5 3.58172 12.9183 0 8.5 0C4.08172 0 0.5 3.58172 0.5 8C0.5 12.4183 4.08172 16 8.5 16Z" fill="url(#paint3_radial_788_248)"/>
<path d="M11.9537 9.64113C11.8877 9.64113 11.8296 9.69689 11.7691 9.81865C11.0864 11.2032 9.90705 12.1828 8.54239 12.1828C6.96445 12.1828 5.98729 10.7584 5.98729 8.79053C5.98729 5.45719 7.84453 3.52991 9.47581 3.52991C10.2381 3.52991 10.7036 4.00895 10.7036 4.77127C10.7036 5.67601 10.1896 6.15505 10.1896 6.47413C10.1896 6.61737 10.2787 6.70411 10.4554 6.70411C11.1652 6.70411 11.9983 5.88847 11.9983 4.73625C11.9983 3.61903 11.0259 2.79785 9.39463 2.79785C6.69869 2.79785 4.30273 5.29725 4.30273 8.75549C4.30273 11.4324 5.83133 13.2013 8.18989 13.2013C10.6933 13.2013 12.1408 10.7106 12.1408 9.90219C12.1408 9.72315 12.0492 9.64113 11.9537 9.64113Z" fill="white"/>
</g>
</g>
<defs>
<radialGradient id="paint0_radial_788_248" cx="0" cy="0" r="1" gradientUnits="userSpaceOnUse" gradientTransform="translate(3.5906 14.1811) rotate(-49.416) scale(12.3747)">
<stop stop-color="#6420FF"/>
<stop offset="1" stop-color="#6420FF" stop-opacity="0"/>
</radialGradient>
<radialGradient id="paint1_radial_788_248" cx="0" cy="0" r="1" gradientUnits="userSpaceOnUse" gradientTransform="translate(4.73576 1.81891) rotate(54.703) scale(13.9547)">
<stop stop-color="#00C4CC"/>
<stop offset="1" stop-color="#00C4CC" stop-opacity="0"/>
</radialGradient>
<radialGradient id="paint2_radial_788_248" cx="0" cy="0" r="1" gradientUnits="userSpaceOnUse" gradientTransform="translate(3.59052 14.1811) rotate(-45.1954) scale(12.2248 5.62236)">
<stop stop-color="#6420FF"/>
<stop offset="1" stop-color="#6420FF" stop-opacity="0"/>
</radialGradient>
<radialGradient id="paint3_radial_788_248" cx="0" cy="0" r="1" gradientUnits="userSpaceOnUse" gradientTransform="translate(7.04316 2.15578) rotate(66.5198) scale(12.5967 21.1024)">
<stop stop-color="#00C4CC" stop-opacity="0.725916"/>
<stop offset="0.0001" stop-color="#00C4CC"/>
<stop offset="1" stop-color="#00C4CC" stop-opacity="0"/>
</radialGradient>
<clipPath id="clip0_788_248">
<rect width="16" height="16" fill="white" transform="translate(0.5)"/>
</clipPath>
</defs>
</svg>
