<svg width="16" height="16" viewBox="0 0 16 16" fill="none" xmlns="http://www.w3.org/2000/svg">
<path d="M6.64807 12H7.33268V8.66671H8.66602V12H9.35062C9.43862 11.199 9.84742 10.5377 10.5111 9.81511C10.5858 9.73377 11.0652 9.23764 11.1221 9.16677C11.6872 8.46211 11.9993 7.59004 11.9993 6.66671C11.9993 4.45757 10.2085 2.66671 7.99935 2.66671C5.79021 2.66671 3.99935 4.45757 3.99935 6.66671C3.99935 7.58957 4.31118 8.46117 4.87576 9.16564C4.93271 9.23671 5.41322 9.73417 5.48704 9.81457C6.15112 10.5376 6.56004 11.199 6.64807 12ZM6.66602 13.3334V14H9.33268V13.3334H6.66602ZM3.83532 9.99951C3.10365 9.08651 2.66602 7.92771 2.66602 6.66671C2.66602 3.72119 5.05383 1.33337 7.99935 1.33337C10.9449 1.33337 13.3327 3.72119 13.3327 6.66671C13.3327 7.92837 12.8945 9.08771 12.1622 10.001C11.7487 10.5166 10.666 11.3334 10.666 12.3334V14C10.666 14.7364 10.0691 15.3334 9.33268 15.3334H6.66602C5.92964 15.3334 5.33268 14.7364 5.33268 14V12.3334C5.33268 11.3334 4.24907 10.5158 3.83532 9.99951Z" fill="#201708"/>
</svg>
