<svg width="17" height="16" viewBox="0 0 17 16" fill="none" xmlns="http://www.w3.org/2000/svg">
<path d="M5.8329 6.89412L5.8326 8.35672C5.03558 8.81778 4.49935 9.67958 4.49935 10.6666C4.49935 12.1393 5.69326 13.3333 7.16602 13.3333C8.15305 13.3333 9.01478 12.7971 9.47585 12L10.9383 12.0002C10.3891 13.5537 8.90752 14.6666 7.16602 14.6666C4.95688 14.6666 3.16602 12.8757 3.16602 10.6666C3.16602 8.92485 4.2792 7.44318 5.8329 6.89412ZM8.49932 11.3333C7.39478 11.3333 6.49935 10.4379 6.49935 9.33325V6.66658C6.49935 5.97032 6.85513 5.35716 7.39478 4.99899C6.85513 4.64267 6.49935 4.02951 6.49935 3.33325C6.49935 2.22869 7.39478 1.33325 8.49932 1.33325C9.60392 1.33325 10.4993 2.22869 10.4993 3.33325C10.4993 4.02951 10.1436 4.64267 9.60385 5.00084C10.1436 5.35716 10.4993 5.97032 10.4993 6.66658V9.99925L11.4552 9.99992C11.8875 9.99992 12.2906 10.2093 12.5396 10.5574L12.5985 10.6473L14.4043 13.6569L13.261 14.3429L11.4552 11.3333L10.4993 11.3326L8.49932 11.3333ZM8.49932 5.99992C8.13118 5.99992 7.83265 6.2984 7.83265 6.66658V9.33325C7.83265 9.70145 8.13118 9.99992 8.49932 9.99992H9.16532L9.16598 6.66658C9.16598 6.2984 8.86752 5.99992 8.49932 5.99992ZM8.49932 2.66659C8.13118 2.66659 7.83265 2.96507 7.83265 3.33325C7.83265 3.70144 8.13118 3.99992 8.49932 3.99992C8.86752 3.99992 9.16598 3.70144 9.16598 3.33325C9.16598 2.96507 8.86752 2.66659 8.49932 2.66659Z" fill="#201708"/>
</svg>
