<svg width="16" height="16" viewBox="0 0 16 16" fill="none" xmlns="http://www.w3.org/2000/svg">
<path d="M11.8933 10.4393L12.0107 10.5573L12.129 10.4393C12.7148 9.85349 13.6645 9.85349 14.2503 10.4393C14.8361 11.0251 14.8361 11.9748 14.2503 12.5606L12.0112 14.7998L9.77202 12.5606C9.18622 11.9748 9.18622 11.0251 9.77202 10.4393C10.3578 9.85349 11.3075 9.85349 11.8933 10.4393ZM7.99935 9.33329V10.6666C5.79021 10.6666 3.99935 12.4575 3.99935 14.6666H2.66602C2.66602 11.7767 4.96458 9.42363 7.83322 9.33583L7.99935 9.33329ZM7.99935 0.666626C10.2093 0.666626 11.9993 2.45663 11.9993 4.66663C11.9993 6.82643 10.2898 8.58503 8.14935 8.66389L7.99935 8.66663C5.78935 8.66663 3.99935 6.87663 3.99935 4.66663C3.99935 2.50685 5.70891 0.748206 7.84935 0.669386L7.99935 0.666626ZM7.99935 1.99996C6.52573 1.99996 5.33268 3.19301 5.33268 4.66663C5.33268 6.14025 6.52573 7.33329 7.99935 7.33329C9.47295 7.33329 10.666 6.14025 10.666 4.66663C10.666 3.19301 9.47295 1.99996 7.99935 1.99996Z" fill="#201708"/>
</svg>
