<svg width="16" height="16" viewBox="0 0 16 16" fill="none" xmlns="http://www.w3.org/2000/svg">
<path d="M5.16667 16C6.63867 16 7.83333 14.8053 7.83333 13.3333V10.6666H5.16667C3.69467 10.6666 2.5 11.8613 2.5 13.3333C2.5 14.8053 3.69467 16 5.16667 16Z" fill="#0ACF83"/>
<path d="M2.5 8.00004C2.5 6.52804 3.69467 5.33337 5.16667 5.33337H7.83333V10.6667H5.16667C3.69467 10.6667 2.5 9.47204 2.5 8.00004Z" fill="#A259FF"/>
<path d="M2.5 2.66667C2.5 1.19467 3.69467 0 5.16667 0H7.83333V5.33333H5.16667C3.69467 5.33333 2.5 4.13867 2.5 2.66667Z" fill="#F24E1E"/>
<path d="M7.83203 0H10.4987C11.9707 0 13.1654 1.19467 13.1654 2.66667C13.1654 4.13867 11.9707 5.33333 10.4987 5.33333H7.83203V0Z" fill="#FF7262"/>
<path d="M13.1654 7.99992C13.1654 9.47192 11.9707 10.6666 10.4987 10.6666C9.0267 10.6666 7.83203 9.47192 7.83203 7.99992C7.83203 6.52792 9.0267 5.33325 10.4987 5.33325C11.9707 5.33325 13.1654 6.52792 13.1654 7.99992Z" fill="#1ABCFE"/>
</svg>
