<svg width="16" height="16" viewBox="0 0 16 16" fill="none" xmlns="http://www.w3.org/2000/svg">
<g clip-path="url(#clip0_788_398)">
<path d="M0 0H16V16H0" fill="#F7DF1E"/>
<path d="M10.125 11.5625C10.4792 12.1667 10.9479 12.4688 11.5312 12.4688C12.2604 12.4688 12.625 12.1875 12.625 11.625C12.625 11.2812 12.1562 10.9688 11.4062 10.6562C10.0104 10.1979 9.32292 9.41667 9.34375 8.3125C9.34375 7.1875 10.1875 6.3125 11.5312 6.3125C12.5312 6.3125 13.2396 6.71875 13.6562 7.53125L12.5 8.28125C12.25 7.82292 11.9271 7.60417 11.5312 7.625C11.0729 7.64583 10.8333 7.86458 10.8125 8.28125C10.8125 8.71875 11.0938 8.90625 12.0312 9.3125C13.375 9.84375 14.125 10.4375 14.125 11.7188C14.0625 13.0729 13.2396 13.7708 11.6562 13.8125C10.3438 13.8125 9.41667 13.3021 8.875 12.2812L10.125 11.5625ZM4.8125 11.6875C5.0625 12.0938 5.21875 12.4688 5.84375 12.4688C6.34375 12.4688 6.59375 12.1562 6.59375 11.5312V6.34375H8.09375V11.4688C8.07292 12.9479 7.32292 13.6979 5.84375 13.7188C4.73958 13.6979 3.98958 13.2396 3.59375 12.3438L4.8125 11.6875Z" fill="black"/>
</g>
<defs>
<clipPath id="clip0_788_398">
<rect width="16" height="16" fill="white"/>
</clipPath>
</defs>
</svg>
