<svg width="16" height="16" viewBox="0 0 16 16" fill="none" xmlns="http://www.w3.org/2000/svg">
<g clip-path="url(#clip0_789_166)">
<path d="M0 0H16V16H0" fill="#005A9C"/>
<path d="M5.15625 4.75L6.3125 8.625L7.46875 4.75H10.5625V5.15625L9.375 7.15625C9.875 7.28125 10.625 7.78125 10.625 9.09375C10.625 11.5312 8.03125 11.8438 7.40625 9.84375L8.03125 9.59375C8.625 10.8438 9.75 10.4688 9.75 9.09375C9.75 8.6875 9.6875 7.8125 8.625 7.8125H8.3125V7.46875L9.4375 5.5625H8.03125L6.40625 11.1562H6.34375L5.125 7.21875L3.96875 11.1562H3.875L1.96875 4.75H2.78125L3.9375 8.625L4.71875 6.03125L4.34375 4.75M11.2812 8.4375C10.3125 6.46875 12 3.28125 13.375 5.65625L13.8438 4.71875L13.9688 5.53125L13.4688 6.4375C12.5625 4.75 10.9688 6 11.2812 8.4375ZM10.7812 9.21875C11.75 11.0938 13.0938 10.7812 13.875 9.3125L14.0312 9.96875C13.1562 11.625 11.4375 11.5938 10.75 9.21875H10.7812ZM11.2812 8.4375C10.3125 6.46875 12 3.28125 13.375 5.65625L13.8438 4.71875L13.9688 5.53125L13.4688 6.4375C12.5625 4.75 10.9688 6 11.2812 8.4375Z" fill="white"/>
</g>
<defs>
<clipPath id="clip0_789_166">
<rect width="16" height="16" fill="white"/>
</clipPath>
</defs>
</svg>
