<svg width="160" height="201" viewBox="0 0 160 201" fill="none" xmlns="http://www.w3.org/2000/svg">
<path d="M1.5651 200H157.931C157.931 200 161.254 177.128 152.655 171.366C144.055 165.603 106.209 171.918 99.4714 171.643C99.4714 171.643 83.3664 191.462 61.8964 171.643C61.8964 171.643 17.0004 168.448 11.2308 170.319C5.45927 172.191 0.386832 170.7 1.5651 200Z" fill="#1DB79D"/>
<path d="M79.9366 180.412L62.8065 194.791C61.5575 195.84 59.6468 195.013 59.5564 193.385L58.335 171.359L61.8933 171.646C61.8933 171.646 70.3533 179.855 79.4319 180.346L79.9366 180.412Z" fill="#FCFCFC"/>
<path d="M81.8159 180.412L98.946 194.791C100.195 195.84 102.106 195.013 102.196 193.385L103.417 171.359L99.8591 171.646C99.8591 171.646 91.7075 180.373 81.1875 180.442" fill="#FCFCFC"/>
<path d="M63.3184 147.267V168.843C63.3184 170.494 61.9005 171.79 60.2549 171.641C49.2066 170.643 11.7554 167.621 6.01328 171.928C-0.736237 176.99 1.79506 199.998 1.79506 199.998" stroke="#201708" stroke-width="1.1456" stroke-miterlimit="10" stroke-linecap="round" stroke-linejoin="round"/>
<path d="M96.6387 147.267V168.843C96.6387 170.494 98.0546 171.79 99.7022 171.641C110.75 170.643 148.202 167.621 153.944 171.928C160.693 176.99 158.162 199.998 158.162 199.998" stroke="#201708" stroke-width="1.1456" stroke-miterlimit="10" stroke-linecap="round" stroke-linejoin="round"/>
<path d="M64.303 94.7204C64.303 98.7678 62.3177 102.047 59.8669 102.047C57.418 102.047 55.4307 98.7658 55.4307 94.7204C55.4307 90.6731 57.4161 87.3916 59.8669 87.3916C62.3177 87.3916 64.303 90.6731 64.303 94.7204Z" fill="#201708"/>
<path d="M45.6389 89.9235C47.318 88.5332 49.0697 87.5493 51.0256 86.7756C52.9619 86.0077 55.0474 85.5325 57.1919 85.4441C59.3402 85.395 61.5416 85.835 63.4642 86.7874C65.4476 87.6711 66.9008 89.3108 68.0673 90.9152C68.2067 91.1057 68.1635 91.3728 67.973 91.5122C67.8277 91.6182 67.6372 91.6183 67.4939 91.528L67.4448 91.4965C65.8207 90.4655 64.2792 89.4993 62.5569 89.1242C60.8681 88.7138 59.1596 88.6058 57.4452 88.8395C55.7328 89.0811 54.04 89.5798 52.3747 90.2181C50.7408 90.8701 49.0245 91.6595 47.534 92.4902L47.4338 92.5452C46.664 92.9733 45.6939 92.6983 45.2639 91.9285C44.8829 91.2471 45.0577 90.4046 45.6389 89.9235Z" fill="#201708"/>
<path d="M95.6543 94.7214C95.6543 98.7688 97.6397 102.048 100.09 102.048C102.539 102.048 104.527 98.7668 104.527 94.7214C104.527 90.674 102.541 87.3926 100.09 87.3926C97.6416 87.3926 95.6543 90.674 95.6543 94.7214Z" fill="#201708"/>
<path d="M112.425 92.4902C110.936 91.6595 109.218 90.8701 107.584 90.2181C105.919 89.5818 104.228 89.0811 102.514 88.8395C100.801 88.6058 99.0926 88.7138 97.4018 89.1242C95.6796 89.4993 94.136 90.4675 92.5139 91.4965L92.4668 91.528C92.2665 91.6536 92.0034 91.5947 91.8757 91.3964C91.7795 91.2432 91.7913 91.0527 91.8914 90.9152C93.0579 89.3089 94.5111 87.6711 96.4945 86.7874C98.4151 85.835 100.616 85.395 102.767 85.4441C104.911 85.5325 106.997 86.0077 108.933 86.7756C110.889 87.5493 112.641 88.5332 114.32 89.9235C114.997 90.4852 115.092 91.4906 114.53 92.1681C114.031 92.7691 113.185 92.9124 112.525 92.5452L112.425 92.4902Z" fill="#201708"/>
<path d="M77.1142 90.0957C77.1142 90.0957 74.4886 107.719 77.1142 108.28C79.7398 108.842 83.4886 108.28 83.4886 108.28" stroke="#201708" stroke-width="1.1456" stroke-miterlimit="10" stroke-linecap="round" stroke-linejoin="round"/>
<path d="M138.01 77.645C138.01 114.169 112.029 151.09 79.98 151.09C47.931 151.09 21.9502 114.167 21.9502 77.645C21.9502 41.1226 47.931 11.5127 79.98 11.5127C112.029 11.5147 138.01 41.1226 138.01 77.645Z" stroke="#201708" stroke-width="1.0933" stroke-miterlimit="10" stroke-linecap="round" stroke-linejoin="round"/>
<path d="M22.3688 85.7349C22.3688 85.7349 19.1109 79.0601 12.923 81.3007C6.73711 83.5414 9.74956 108.527 26.0529 103.158" stroke="#201708" stroke-width="1.0933" stroke-miterlimit="10" stroke-linecap="round" stroke-linejoin="round"/>
<path d="M137.265 85.7349C137.265 85.7349 140.523 79.0601 146.711 81.3007C152.897 83.5414 149.884 108.527 133.581 103.158" stroke="#201708" stroke-width="1.0933" stroke-miterlimit="10" stroke-linecap="round" stroke-linejoin="round"/>
<path d="M58.3399 128.668C58.6718 123.678 61.3052 111.163 79.2522 110.002C79.2522 110.002 99.9976 110.336 102.774 128.318C102.963 129.534 101.906 130.582 100.699 130.357C95.6616 129.41 83.8769 126.103 79.7432 115.512C79.7432 115.512 75.7036 128.571 60.3646 130.518C59.2531 130.657 58.2653 129.785 58.3399 128.668Z" fill="#201708"/>
<path d="M130.92 28.3041C127.104 -9.32191 80.5663 9.4577 80.5663 9.4577C59.3202 -7.65273 43.553 14.43 43.553 14.43C7.93196 18.1789 17.9963 54.175 17.9963 54.175C5.56362 74.0484 21.0814 97.9634 21.0814 97.9634H21.0834C20.6435 111.735 21.4958 132.489 29.8674 139.586C29.8674 139.586 33.2412 166.02 49.8332 166.582C49.8332 166.582 81.7976 194.892 104.523 166.582C104.523 166.582 128.013 166.02 131.106 137.054C131.106 137.054 139.077 123.508 138.724 95.8543L138.736 95.8562C141.927 84.7648 141.634 62.5171 141.634 62.5171C149.725 38.616 130.92 28.3041 130.92 28.3041ZM79.718 137.901C79.718 137.901 45.0572 135.823 34.7258 96.7675L36.6189 66.5507C36.6189 66.5507 50.1179 67.9568 52.6473 56.9891C52.6473 56.9891 81.2124 77.7993 102.787 56.9891C102.787 56.9891 105.516 70.9044 120.702 70.4881L125.152 93.048C120.388 108.858 107.816 137.901 79.718 137.901Z" fill="#201708"/>
<path d="M84.6113 9.10468C89.1496 5.34993 94.5343 2.56333 100.337 1.02176C103.228 0.161628 106.286 -0.0249554 109.326 0.00253752C110.84 0.183205 112.383 0.230334 113.856 0.687895C114.596 0.888201 115.354 1.03352 116.079 1.28096L118.21 2.15881L119.268 2.6144L120.248 3.2173L122.202 4.4289C123.433 5.32045 124.606 6.27882 125.731 7.29606C127.897 9.4248 129.82 11.8893 131.004 14.7368C132.208 17.5686 132.626 20.7126 132.245 23.7113C131.795 26.6943 130.776 29.581 129.046 31.9769C130.33 29.3375 131.078 26.4763 131.147 23.6229C131.288 20.7794 130.705 17.9397 129.429 15.4496C128.131 12.9733 126.387 10.7503 124.284 8.85921C123.209 7.95195 122.1 7.04075 120.951 6.2356L119.15 5.15159L118.253 4.60761L117.285 4.20704L115.358 3.38222C114.702 3.14853 114.011 3.01301 113.34 2.82056C112.006 2.36889 110.584 2.34928 109.198 2.12148C106.388 1.98009 103.536 2.11758 100.724 2.70082C97.916 3.2605 95.1352 4.09508 92.4586 5.22033C89.7486 6.27881 87.1387 7.60239 84.6113 9.10468Z" fill="#201708"/>
<path d="M43.5555 14.4319C38.2042 14.6852 32.9688 16.0206 28.346 18.3928C26.0504 19.5986 23.8627 21.0184 22.0285 22.8251C21.0427 23.6558 20.2513 24.673 19.3873 25.6196C18.643 26.6564 17.8319 27.6796 17.2291 28.795C15.9074 30.9728 15.0846 33.3942 14.6329 35.8902C14.2657 38.4058 14.3482 40.9822 14.7527 43.543C15.7464 48.6291 17.8967 53.5799 20.8719 58.0338C17.2055 54.1121 14.3914 49.2713 13.0344 43.9024C12.3883 41.208 12.241 38.3861 12.5238 35.5857C12.95 32.8011 13.8612 30.0813 15.2908 27.654C18.1088 22.8447 22.5273 18.976 27.5958 16.812C32.6329 14.5713 38.2219 13.8133 43.5555 14.4319Z" fill="#201708"/>
<path d="M102.798 53.9121C103.466 57.4017 102.011 61.2606 99.4089 63.8528C96.8265 66.5294 93.3978 68.126 89.9592 69.1569C89.0912 69.3926 88.2036 69.536 87.3277 69.7284C86.448 69.8993 85.576 70.1291 84.6845 70.1703C82.9072 70.2705 81.1418 70.5984 79.3705 70.4786C77.6031 70.4236 75.8337 70.4747 74.0859 70.239C72.3362 70.0132 70.5924 69.7932 68.8662 69.4731C70.6258 69.2944 72.3676 69.2178 74.1036 69.1334C75.8396 69.1098 77.5599 68.8172 79.2782 68.7249C82.7089 68.4029 86.0827 67.8471 89.3484 66.9929C92.5789 66.064 95.6797 64.709 98.1992 62.5901C100.707 60.4908 102.498 57.4214 102.798 53.9121Z" fill="#201708"/>
</svg>
