<svg width="160" height="201" viewBox="0 0 160 201" fill="none" xmlns="http://www.w3.org/2000/svg">
<path d="M0.71579 200H158.244C158.244 200 161.592 176.957 152.928 171.153C144.265 165.346 106.138 171.709 99.3499 171.432C99.3499 171.432 82.2765 183.338 61.4956 171.432C61.4956 171.432 16.2658 168.213 10.4534 170.098C4.63891 171.986 -0.471238 170.484 0.71579 200Z" fill="#1DB79D"/>
<path d="M92.6609 194.247C86.0452 195.875 80.1793 174.57 80.1793 174.57C80.1793 174.57 75.2848 196.935 64.8963 193.912C54.5078 190.891 62.732 170.413 62.732 170.413C62.732 170.413 77.552 179.779 97.3833 170.413C97.3833 170.413 105.882 190.992 92.6609 194.247Z" fill="#FCFCFC" stroke="#201708" stroke-width="1.0735" stroke-miterlimit="10" stroke-linecap="round" stroke-linejoin="round"/>
<path d="M63.3964 146.874V168.61C63.3964 170.276 61.97 171.58 60.3101 171.43C49.1797 170.425 11.4501 167.38 5.66528 171.719C-1.13441 176.819 1.4157 199.997 1.4157 199.997" stroke="#201708" stroke-width="1.1456" stroke-miterlimit="10" stroke-linecap="round" stroke-linejoin="round"/>
<path d="M96.9648 146.874V168.61C96.9648 170.276 98.3913 171.58 100.051 171.43C111.181 170.425 148.911 167.38 154.696 171.719C161.496 176.819 158.945 199.997 158.945 199.997" stroke="#201708" stroke-width="1.1456" stroke-miterlimit="10" stroke-linecap="round" stroke-linejoin="round"/>
<path d="M76.1199 150.729C76.1199 150.729 71.6666 131.398 76.1199 128.375C78.7254 126.606 82.0471 126.907 84.3539 127.463C86.0118 127.861 87.2166 129.275 87.3729 130.973C87.8418 136.075 88.645 147.174 87.1137 150.153C87.1137 150.153 81.4615 151.791 76.1199 150.729Z" fill="#201708"/>
<path d="M64.3895 93.9385C64.3895 98.0159 62.3893 101.32 59.9203 101.32C57.4513 101.32 55.4512 98.0139 55.4512 93.9385C55.4512 89.861 57.4513 86.5571 59.9203 86.5571C62.3893 86.5571 64.3895 89.861 64.3895 93.9385Z" fill="#201708"/>
<path d="M45.5895 89.1072C47.281 87.7065 49.0458 86.7154 51.0142 85.9359C52.9649 85.1623 55.066 84.6836 57.2264 84.5945C59.3907 84.5451 61.6085 84.9882 63.5453 85.9477C65.5435 86.838 67.0075 88.49 68.1826 90.1063C68.3231 90.2982 68.2796 90.5673 68.0877 90.7077C67.9413 90.8146 67.7494 90.8146 67.6049 90.7236L67.5555 90.6919C65.9193 89.6533 64.3663 88.6799 62.6313 88.3C60.9299 87.8866 59.2087 87.7777 57.4816 88.0132C55.7564 88.2565 54.0511 88.759 52.3754 89.402C50.7294 90.0588 49.0002 90.8541 47.4986 91.691L47.3978 91.7484C46.6222 92.1796 45.6449 91.9027 45.2117 91.1271C44.8279 90.4387 45.0039 89.5919 45.5895 89.1072Z" fill="#201708"/>
<path d="M95.9727 93.939C95.9727 98.0164 97.9728 101.32 100.442 101.32C102.909 101.32 104.911 98.0144 104.911 93.939C104.911 89.8615 102.911 86.5576 100.442 86.5576C97.9748 86.5576 95.9727 89.8615 95.9727 93.939Z" fill="#201708"/>
<path d="M112.866 91.691C111.366 90.8542 109.635 90.0589 107.989 89.402C106.314 88.761 104.608 88.2565 102.881 88.0132C101.156 87.7778 99.4348 87.8866 97.7314 88.3001C95.9964 88.6779 94.4414 89.6533 92.8072 90.6919L92.7598 90.7216C92.558 90.8482 92.2929 90.7889 92.1662 90.5891C92.0693 90.4367 92.0812 90.2428 92.1821 90.1043C93.3572 88.486 94.8212 86.8361 96.8194 85.9458C98.7543 84.9863 100.972 84.5431 103.138 84.5926C105.299 84.6816 107.402 85.1604 109.35 85.9339C111.321 86.7134 113.086 87.7046 114.777 89.1053C115.46 89.6711 115.557 90.684 114.989 91.3666C114.486 91.9719 113.634 92.1164 112.969 91.7464L112.866 91.691Z" fill="#201708"/>
<path d="M78.2598 119.216C81.7951 118.294 85.1168 117.43 88.1793 116.031C89.7027 115.331 91.1074 114.456 92.4329 113.439C93.7505 112.391 94.8227 111.095 95.9742 109.635C95.7091 111.439 94.9335 113.253 93.6753 114.697C92.4269 116.146 90.8284 117.263 89.129 118.086C87.3979 118.844 85.5817 119.343 83.7418 119.533C81.9099 119.726 80.0482 119.695 78.2598 119.216Z" fill="#201708"/>
<path d="M77.2986 89.2783C77.2986 89.2783 74.6536 107.032 77.2986 107.6C79.9437 108.166 83.7205 107.6 83.7205 107.6" stroke="#201708" stroke-width="1.1456" stroke-miterlimit="10" stroke-linecap="round" stroke-linejoin="round"/>
<path d="M138.645 76.7372C138.645 113.533 112.471 150.729 80.1818 150.729C47.8947 150.729 21.7207 113.531 21.7207 76.7372C21.7207 39.9433 47.8947 10.1133 80.1818 10.1133C112.471 10.1133 138.645 39.9413 138.645 76.7372Z" stroke="#201708" stroke-width="1.0933" stroke-miterlimit="10" stroke-linecap="round" stroke-linejoin="round"/>
<path d="M22.1448 84.8875C22.1448 84.8875 18.8626 78.163 12.6288 80.4204C6.39687 82.6777 9.43172 107.849 25.8562 102.44" stroke="#201708" stroke-width="1.0933" stroke-miterlimit="10" stroke-linecap="round" stroke-linejoin="round"/>
<path d="M137.895 84.8875C137.895 84.8875 141.177 78.163 147.411 80.4204C153.645 82.6777 150.608 107.849 134.184 102.44" stroke="#201708" stroke-width="1.0933" stroke-miterlimit="10" stroke-linecap="round" stroke-linejoin="round"/>
<path d="M124.974 15.5794C107.988 0.808855 57.9129 -10.4461 33.1713 15.5794C8.42965 41.605 14.8515 79.1903 14.8515 79.1903C14.8515 79.1903 16.6419 79.4138 18.4086 80.3021C20.0506 115.875 45.9278 154.127 80.1835 154.127C114.316 154.127 140.122 116.156 141.935 80.6919C142.95 80.0825 144.099 79.673 145.171 79.9559C145.171 79.9559 148.428 35.9745 124.974 15.5794ZM80.1835 147.328C57.4895 147.328 38.9303 127.999 30.3164 104.737C26.243 93.3733 30.0612 79.0379 30.5776 77.2158C33.2128 68.5189 38.0836 55.0402 45.3957 52.9154C55.4597 49.9914 66.7859 67.6959 82.2766 64.6986C97.7653 61.7014 104.189 50.1813 111.933 50.1813C117.648 50.1813 123.601 66.6355 129.623 76.747L129.617 76.743C129.617 76.743 134.342 92.5879 129.979 104.743L130.049 104.757C121.429 128.011 102.872 147.328 80.1835 147.328Z" fill="#201708"/>
</svg>
