<svg width="453" height="453" viewBox="0 0 453 453" fill="none" xmlns="http://www.w3.org/2000/svg">
<mask id="mask0_407_446" style="mask-type:luminance" maskUnits="userSpaceOnUse" x="0" y="0" width="453" height="453">
<path d="M226.5 453C351.592 453 453 351.592 453 226.5C453 101.408 351.592 0 226.5 0C101.408 0 0 101.408 0 226.5C0 351.592 101.408 453 226.5 453Z" fill="white"/>
</mask>
<g mask="url(#mask0_407_446)">
<path d="M226.502 453C351.594 453 453.002 351.592 453.002 226.5C453.002 101.408 351.594 0 226.502 0C101.409 0 0.00195312 101.408 0.00195312 226.5C0.00195312 351.592 101.409 453 226.502 453Z" fill="#FCFCFC"/>
<path d="M99.081 371.427C97.0994 386.998 90.8956 410.2 94.5487 453.534C105.185 453.796 126.937 453.264 142.971 453.264C140.819 418.107 146.694 397.319 145.325 388.901C141.648 384.321 126.87 376.212 118.792 376.087C111.238 376.087 104.972 370.356 99.081 371.427Z" fill="#FFE4D4"/>
<path d="M354.574 370.564C356.556 386.134 363.387 408.53 359.733 451.864C349.097 452.126 326.808 451.953 310.774 451.953C312.926 416.795 303.287 394.305 304.656 385.887C308.333 381.307 326.785 375.349 334.863 375.223C342.417 375.223 348.683 369.493 354.574 370.564Z" fill="#FFE4D4"/>
<path d="M191.702 307.042C199.047 305.81 200.584 295.755 199.938 289.303C212.4 280.454 238.732 273.234 246.44 289.937C245.207 297.959 248.542 306.307 256.07 308.816C255.735 333.757 229.513 340.577 209.061 334.285C204.164 332.778 197.83 332.149 194.49 327.696C192.395 324.903 193.36 320.827 192.463 317.686C191.457 314.165 190.634 310.513 191.702 307.042Z" fill="#FFE4D4" stroke="#303030" stroke-width="1.88976" stroke-linecap="round" stroke-linejoin="round"/>
<path d="M161.182 354.531C152.908 362.889 153.021 452.855 156.882 453.804C294.808 452.394 156.882 453.804 294.502 452.012C296.356 448.238 294.447 436.698 295.325 422.607C297.456 388.406 289.037 352.224 283.034 349.514C279.288 347.823 231.863 355.679 213.507 354.531C195.575 353.411 178.528 352.954 161.182 354.531Z" fill="#F5AAB9"/>
<path d="M152.244 231.166C130.73 224.298 134.137 202.405 151.599 197.445L152.244 231.166Z" fill="#FFE4D4"/>
<path d="M152.244 231.166C130.73 224.298 134.137 202.405 151.599 197.445" stroke="#303030" stroke-width="1.88976" stroke-linecap="round"/>
<path d="M293.245 233.231C311.959 226.382 309.696 202.996 290.501 199.744L293.245 233.231Z" fill="#FFE4D4"/>
<path d="M293.245 233.231C311.959 226.382 309.696 202.996 290.501 199.744" stroke="#303030" stroke-width="1.88976" stroke-linecap="round"/>
<path d="M150.466 212.333C151.382 227.833 154.563 249.934 162.248 262.296C170.028 274.811 182.147 284.154 194.3 288.264C214.969 295.256 242.425 294.101 258.856 287.812C274.501 281.824 282.556 270.634 287.066 260.247C297.031 237.296 295.405 198.724 282.547 181.679C243.423 124.146 149.467 142.273 150.466 212.333Z" fill="#FFE4D4" stroke="#303030" stroke-width="1.88976" stroke-linecap="round"/>
<path d="M221.515 224.104C221.142 238.623 221.515 224.104 221.142 238.623" stroke="#303030" stroke-width="1.88976" stroke-linecap="round"/>
<path d="M207.397 256.816C217.422 267.084 228.021 266.533 237.062 257.666" stroke="#303030" stroke-width="1.88976" stroke-linecap="round"/>
<path d="M203.312 207.52C214.119 201.364 228.546 201.628 238.882 207.266" stroke="#303030" stroke-width="1.88976" stroke-linecap="round" stroke-linejoin="round"/>
<path d="M274.704 207.838C281.899 206.835 288.818 202.618 295.311 200.67L274.704 207.838Z" fill="#FFE4D4"/>
<path d="M274.704 207.838C281.899 206.835 288.818 202.618 295.311 200.67" stroke="#303030" stroke-width="1.88976" stroke-linecap="round" stroke-linejoin="round"/>
<path d="M237.422 204.347C236.862 198.634 235.935 177.198 239.576 173.557C248.979 183.472 259.656 191.042 267.85 196.558C270.055 198.042 271.099 197.769 269.678 195.238C266.953 190.383 261.607 180.159 263.766 172.244C281.926 183.202 289.482 200.693 289.298 211.682C289.22 216.315 290.474 216.493 292.095 213.891C301.934 198.095 309.737 181.837 300.143 165.448C319.249 173.122 346.052 173.9 350.699 148.912C337.961 159.176 300.31 146.186 301.41 137.825C304.794 134.725 314.68 134.821 319.11 134.02C321.421 133.448 322.712 133.306 320.889 130.897C296.261 97.5676 258.533 107.335 255.768 105.184C258.367 101.029 265.842 89.9617 269.725 85.1796C271.195 83.3955 270.179 82.1769 268.143 82.397C257.358 82.9353 240.623 92.7219 233.494 101.206C215.538 105.344 208.792 107.526 193.065 115.112C191.758 115.54 191.221 115.643 190.392 115.021C181.429 107.222 182.849 93.8379 184.447 87.535C184.659 86.3413 183.942 85.7244 182.127 86.1082C159.251 93.1541 168.969 123.526 169.315 125.635C167.606 126.011 144.15 135.307 142.402 144.492C142.155 145.788 142.571 147.061 144.386 147.035C148.187 146.923 156.9 144.818 160.044 146.914C159.041 147.966 136.517 162.8 136.892 195.258C136.907 196.542 137.987 196.806 139.151 196.584C151.905 193.363 161.239 188.165 161.239 188.165C161.239 188.165 159.834 195.516 161.9 199.361C162.769 200.916 164.12 201.719 165.497 201.068C186.997 196.357 198.413 175.324 213.727 161.139C212.508 172.092 225.476 202.573 234.352 212.493C238.815 217.483 237.878 209.005 237.422 204.347Z" fill="#FCECB8" stroke="#303030" stroke-width="1.88976" stroke-linecap="round" stroke-linejoin="round"/>
<path d="M167.548 207.301C158.714 201.491 151.695 196.914 151.6 197.445L167.548 207.301Z" fill="#FFE4D4"/>
<path d="M167.548 207.301C158.714 201.491 151.695 196.914 151.6 197.445" stroke="#303030" stroke-width="1.88976" stroke-linecap="round" stroke-linejoin="round"/>
<path d="M185.063 212.945C181.474 211.665 183.814 206.555 187.622 207.559C192.016 208.717 189.209 214.102 185.063 212.945Z" fill="#303030" stroke="#303030" stroke-width="1.88976" stroke-linecap="round" stroke-linejoin="round"/>
<path d="M260.289 211.766C257.74 214.599 253.771 210.834 256.147 207.694C258.889 204.071 262.936 208.373 260.289 211.766Z" fill="#303030" stroke="#303030" stroke-width="1.88976" stroke-linecap="round" stroke-linejoin="round"/>
<path d="M170.857 198.553L198.861 197.482C201.701 197.466 201.888 197.564 202.368 199.885C210.553 239.615 165.138 240.119 167.587 201.791C167.629 198.763 167.856 198.667 170.857 198.553Z" stroke="#303030" stroke-width="1.88976" stroke-linecap="round" stroke-linejoin="round"/>
<path d="M247.814 238.913C250.146 235.263 250.888 233.496 253.098 230.527" stroke="#FA5F91" stroke-opacity="0.717252" stroke-width="1.88976" stroke-linecap="round" stroke-linejoin="round"/>
<path d="M242.316 197.788L270.32 196.718C273.16 196.701 273.347 196.799 273.827 199.12C282.012 238.85 236.597 239.354 239.046 201.026C239.088 197.998 239.315 197.903 242.316 197.788Z" stroke="#303030" stroke-width="1.88976" stroke-linecap="round" stroke-linejoin="round"/>
<path d="M175.828 239.395C178.16 235.745 178.902 233.978 181.112 231.009" stroke="#FA5F91" stroke-opacity="0.717252" stroke-width="1.88976" stroke-linecap="round" stroke-linejoin="round"/>
<path d="M181.392 239.663C183.501 236.321 184.3 235.01 186.675 231.831" stroke="#FA5F91" stroke-opacity="0.717252" stroke-width="1.88976" stroke-linecap="round" stroke-linejoin="round"/>
<path d="M187.477 239.745C189.931 236.167 191.088 234.269 192.826 231.727" stroke="#FA5F91" stroke-opacity="0.717252" stroke-width="1.88976" stroke-linecap="round" stroke-linejoin="round"/>
<path d="M253.379 239.182C255.489 235.84 256.287 234.528 258.662 231.349" stroke="#FA5F91" stroke-opacity="0.717252" stroke-width="1.88976" stroke-linecap="round" stroke-linejoin="round"/>
<path d="M259.463 239.263C261.917 235.685 263.074 233.787 264.812 231.246" stroke="#FA5F91" stroke-opacity="0.717252" stroke-width="1.88976" stroke-linecap="round" stroke-linejoin="round"/>
<path d="M158.606 362.723C158.118 368.093 156.741 381.291 153.424 388.418C152.519 390.362 151.701 391.549 149.23 391.866C142.988 392.667 99.5857 381.164 94.9352 378.625C92.423 377.253 91.9242 375.022 92.2176 372.302C96.2973 334.477 141.334 302.904 188.081 305.251C190.601 305.427 190.971 305.387 191.521 307.428C200.713 341.397 248.062 327.153 255.631 310.733C256.873 308.098 256.64 308.12 259.874 307.625C316.235 304.813 355.664 333.508 361.802 378.963C361.968 381.621 359.956 383.257 357.82 384.118C343.597 388.747 332.569 391.568 301.995 392.653C299.884 392.481 299.192 391.179 298.299 389.689C295.64 383.201 291.014 374.082 286.835 363.23" fill="#F5AAB9"/>
<path d="M158.606 362.723C158.118 368.093 156.741 381.291 153.424 388.418C152.519 390.362 151.701 391.549 149.23 391.866C142.988 392.667 99.5857 381.164 94.9352 378.625C92.423 377.253 91.9242 375.022 92.2176 372.302C96.2973 334.477 141.334 302.904 188.081 305.251C190.601 305.427 190.971 305.387 191.521 307.428C200.713 341.397 248.062 327.153 255.631 310.733C256.873 308.098 256.64 308.12 259.874 307.625C316.235 304.813 355.664 333.508 361.802 378.963C361.968 381.621 359.956 383.257 357.82 384.118C343.597 388.747 332.569 391.568 301.995 392.653C299.884 392.481 299.192 391.179 298.299 389.689C295.64 383.201 291.014 374.082 286.835 363.23" stroke="#303030" stroke-width="1.88976" stroke-linecap="round" stroke-linejoin="round"/>
<path d="M155.78 381.657C154.412 404.932 153.999 431.347 156.261 452.75" stroke="#303030" stroke-width="1.88976" stroke-linecap="round" stroke-linejoin="round"/>
<path d="M292.959 377.787C296.335 401.814 295.541 429.113 294.807 452.395" stroke="#303030" stroke-width="1.88976" stroke-linecap="round" stroke-linejoin="round"/>
<path d="M97.4829 380.222C93.6481 403.077 92.2432 430.638 94.5108 453.315" stroke="#303030" stroke-width="1.88976" stroke-linecap="round" stroke-linejoin="round"/>
<path d="M145.557 391.826C142.115 410.816 142.561 434.028 142.817 452.916" stroke="#303030" stroke-width="1.88976" stroke-linecap="round" stroke-linejoin="round"/>
<path d="M356.361 385.577C359.645 402.948 362.417 427.616 359.652 451.627" stroke="#303030" stroke-width="1.88976" stroke-linecap="round" stroke-linejoin="round"/>
<path d="M304.744 393.078C308.392 410.546 312.622 431.833 310.571 451.562" stroke="#303030" stroke-width="1.88976" stroke-linecap="round" stroke-linejoin="round"/>
<path d="M279.245 296.594C262.946 303.041 272.574 317.591 277.462 319.672C283.362 322.184 293.066 322.059 297.954 313.347C293.322 322.66 299.321 329.183 306.924 330.431C316.263 331.964 321.137 329.3 324.772 321.594C325.039 332.709 330.974 341.298 342.471 336.384C357.687 329.88 348.542 315.75 345.075 314.021C348.288 297.576 340.385 287.305 328.311 281.886C312.729 275.208 287.667 276.727 279.245 296.594Z" fill="#83C2BA" stroke="#303030" stroke-width="1.88976" stroke-linecap="round" stroke-linejoin="round"/>
<path d="M184.533 306.087C188.02 354.02 267.11 333.868 262.66 308.054" stroke="#303030" stroke-width="1.88976" stroke-linecap="round" stroke-linejoin="round"/>
<path d="M308.267 305.603C314.279 299.156 317.831 303.601 317.752 308.633" stroke="#303030" stroke-width="1.88976" stroke-linecap="round" stroke-linejoin="round"/>
<path d="M325.224 297.889C327.772 296.695 331.008 296.156 333.719 296.294C335.104 299.603 334.089 303.606 331.015 304.298C328.656 304.829 325.354 303.052 325.224 297.889Z" fill="#303030" stroke="#303030" stroke-width="1.88976" stroke-linecap="round" stroke-linejoin="round"/>
<path d="M305.652 285.482C307.75 287.357 309.517 290.121 310.455 292.669C307.955 295.242 303.875 295.881 302.031 293.325C300.617 291.364 300.954 287.629 305.652 285.482Z" fill="#303030" stroke="#303030" stroke-width="1.88976" stroke-linecap="round" stroke-linejoin="round"/>
<path d="M330.027 299.595C330.285 299.554 330.422 299.08 330.332 298.538C330.242 297.996 329.96 297.591 329.702 297.632C329.444 297.674 329.307 298.147 329.397 298.689C329.487 299.232 329.769 299.637 330.027 299.595Z" fill="white" stroke="white" stroke-width="1.24152" stroke-linecap="round" stroke-linejoin="round"/>
<path d="M305.448 290.606C305.622 290.816 306.142 290.698 306.607 290.344C307.073 289.99 307.31 289.534 307.135 289.324C306.961 289.115 306.442 289.232 305.976 289.586C305.51 289.94 305.274 290.397 305.448 290.606Z" fill="white" stroke="white" stroke-width="1.30766" stroke-linecap="round" stroke-linejoin="round"/>
</g>
</svg>
