<svg width="28" height="28" viewBox="0 0 28 28" fill="none" xmlns="http://www.w3.org/2000/svg">
<path d="M23.0216 9.94091C22.7312 9.84258 22.4302 9.74955 22.1203 9.66157C22.1712 9.45713 22.218 9.25533 22.2595 9.05697C22.9418 5.79975 22.4957 3.17572 20.9724 2.31178C19.5117 1.48337 17.1228 2.34712 14.7102 4.41203C14.4782 4.6106 14.2455 4.82082 14.013 5.04115C13.858 4.89537 13.7033 4.7545 13.549 4.61976C11.0205 2.41182 8.48604 1.48136 6.96419 2.34781C5.50489 3.17861 5.07273 5.64545 5.6869 8.73234C5.74621 9.0305 5.81554 9.33498 5.89393 9.64456C5.53524 9.7447 5.18895 9.85146 4.85762 9.96502C1.89321 10.9815 0 12.5744 0 14.2268C0 15.9334 2.03236 17.6451 5.12002 18.683C5.36369 18.7649 5.61653 18.8423 5.87709 18.9159C5.79251 19.2507 5.71895 19.5788 5.6572 19.8988C5.07158 22.9321 5.52891 25.3407 6.98433 26.1662C8.48764 27.0188 11.0106 26.1425 13.4674 24.0305C13.6615 23.8636 13.8564 23.6865 14.0516 23.5009C14.3047 23.7406 14.5573 23.9674 14.8086 24.1801C17.1882 26.194 19.5385 27.0072 20.9926 26.1793C22.4944 25.3243 22.9825 22.7369 22.3488 19.589C22.3004 19.3486 22.2441 19.1029 22.1809 18.853C22.3581 18.8014 22.532 18.7483 22.7016 18.693C25.9115 17.647 28 15.9562 28 14.2268C28 12.5685 26.0457 10.9647 23.0216 9.94091ZM22.3254 17.5764C22.1723 17.6262 22.0152 17.6744 21.8551 17.7211C21.5008 16.6178 21.0225 15.4446 20.4372 14.2325C20.9957 13.0493 21.4555 11.8911 21.8 10.795C22.0864 10.8765 22.3644 10.9625 22.6323 11.0532C25.2233 11.9304 26.8038 13.2274 26.8038 14.2268C26.8038 15.2913 25.0969 16.6732 22.3254 17.5764ZM21.1754 19.8174C21.4556 21.2094 21.4956 22.4679 21.31 23.4518C21.1433 24.3358 20.8079 24.9252 20.3932 25.1613C19.5108 25.6636 17.6238 25.0107 15.5887 23.2884C15.3554 23.0909 15.1204 22.8801 14.8847 22.657C15.6736 21.8084 16.4621 20.8219 17.2317 19.7262C18.5853 19.6081 19.8641 19.415 21.0238 19.1513C21.081 19.3779 21.1317 19.6002 21.1754 19.8174ZM9.54583 25.0745C8.68371 25.3739 7.99707 25.3825 7.582 25.1471C6.69879 24.6461 6.33163 22.7123 6.83246 20.1182C6.88983 19.8211 6.95811 19.5159 7.03681 19.204C8.18382 19.4534 9.45328 19.6329 10.8101 19.7411C11.5849 20.8132 12.3962 21.7987 13.2137 22.6615C13.0351 22.8311 12.8572 22.9926 12.6802 23.1447C11.5939 24.0786 10.5052 24.7412 9.54583 25.0745ZM5.50688 17.5698C4.14157 17.1109 3.01405 16.5144 2.24119 15.8636C1.54672 15.2787 1.1961 14.698 1.1961 14.2268C1.1961 13.2241 2.71616 11.9451 5.25135 11.0759C5.55896 10.9704 5.88098 10.871 6.21515 10.7776C6.56552 11.8985 7.02514 13.0704 7.57981 14.2554C7.01797 15.4581 6.55182 16.6486 6.19801 17.7827C5.95977 17.7153 5.72896 17.6444 5.50688 17.5698ZM6.86077 8.50643C6.33457 5.86166 6.68404 3.86654 7.56346 3.3659C8.5002 2.83257 10.5716 3.59299 12.7548 5.49944C12.8943 5.62129 13.0344 5.74883 13.1749 5.88078C12.3614 6.73987 11.5575 7.71792 10.7896 8.78371C9.47277 8.90375 8.21222 9.09657 7.05325 9.35478C6.98039 9.06652 6.91585 8.78331 6.86077 8.50643ZM18.9387 11.4395C18.6616 10.9688 18.3772 10.5093 18.0872 10.0623C18.9806 10.1734 19.8366 10.3208 20.6404 10.5013C20.3991 11.2619 20.0983 12.0571 19.7442 12.8724C19.4902 12.3982 19.2216 11.92 18.9387 11.4395ZM14.0134 6.72149C14.5651 7.30933 15.1176 7.96564 15.6611 8.67774C15.1134 8.6523 14.559 8.63906 14 8.63906C13.4463 8.63906 12.896 8.652 12.3517 8.677C12.8957 7.97152 13.453 7.31609 14.0134 6.72149ZM9.05646 11.4476C8.7797 11.9196 8.51605 12.3951 8.26605 12.8715C7.91772 12.0591 7.61973 11.2602 7.37631 10.4888C8.17519 10.313 9.0271 10.1692 9.9148 10.0603C9.62074 10.5113 9.33396 10.9743 9.05646 11.4476ZM9.94036 18.4773C9.02321 18.3766 8.1585 18.2403 7.35982 18.0693C7.60712 17.2841 7.91169 16.4682 8.2674 15.6382C8.51804 16.1143 8.78274 16.5901 9.06119 17.0631C9.34483 17.5449 9.63873 18.017 9.94036 18.4773ZM14.0465 21.8151C13.4795 21.2135 12.914 20.5481 12.3618 19.8323C12.8979 19.853 13.4445 19.8636 14 19.8636C14.5707 19.8636 15.1349 19.8509 15.6902 19.8266C15.145 20.5553 14.5944 21.2217 14.0465 21.8151ZM19.7556 15.5959C20.1299 16.4348 20.4454 17.2465 20.6959 18.0183C19.884 18.2005 19.0075 18.3472 18.084 18.4562C18.3746 18.0032 18.6615 17.5358 18.9435 17.055C19.2287 16.5686 19.4996 16.0814 19.7556 15.5959ZM17.9074 16.4673C17.4697 17.2136 17.0203 17.9261 16.5641 18.5987C15.7333 18.6571 14.8749 18.6872 14 18.6872C13.1287 18.6872 12.2811 18.6606 11.4649 18.6085C10.9903 17.9271 10.5312 17.2125 10.0963 16.4737C9.66256 15.7369 9.26344 14.9939 8.90171 14.255C9.26334 13.5145 9.66151 12.7706 10.0928 12.0351L10.0927 12.0353C10.5251 11.2978 10.9802 10.5867 11.4504 9.90964C12.2831 9.84773 13.137 9.81543 13.9999 9.81543C14.8668 9.81543 15.7219 9.84798 16.5543 9.91042C17.0173 10.5826 17.4693 11.2914 17.9034 12.0289C18.3425 12.7747 18.7458 13.5136 19.1105 14.2383C18.7469 14.9755 18.3445 15.7218 17.9074 16.4673ZM20.3749 3.3309C21.3125 3.86267 21.6771 6.00729 21.088 8.81954C21.0505 8.99898 21.0081 9.18176 20.9622 9.36699C19.8005 9.10338 18.5391 8.90723 17.2184 8.78537C16.449 7.70787 15.6517 6.7283 14.8515 5.88024C15.0666 5.67668 15.2815 5.48258 15.4954 5.29941C17.5626 3.5302 19.4946 2.83168 20.3749 3.3309ZM14 11.7679C15.3809 11.7679 16.5003 12.8687 16.5003 14.2268C16.5003 15.5848 15.3809 16.6858 14 16.6858C12.6191 16.6858 11.4997 15.5848 11.4997 14.2268C11.4997 12.8687 12.6191 11.7679 14 11.7679Z" fill="#257BC2"/>
</svg>
