<svg width="280" height="607" viewBox="0 0 280 607" fill="none" xmlns="http://www.w3.org/2000/svg">
<path fillRule="evenodd" clipRule="evenodd" d="M36.8491 1.08643C15.0442 1.08643 0 16.0309 0 36.3348L9.98456e-05 573.291C9.98456e-05 593.595 14.9159 605.51 36.7208 605.51L240.188 605.51C261.992 605.51 277.018 593.595 277.018 573.291L277.018 249.053H277.876C278.824 249.053 279.391 248.598 279.391 247.716V213.043C279.391 212.16 278.824 211.184 277.876 211.184H277.018V174.532H277.876C278.824 174.532 279.391 173.752 279.391 172.869V104.324C279.391 103.441 278.824 102.79 277.876 102.79H277.018V36.3349C277.018 16.0311 262.063 1.08643 240.259 1.08643H36.8491ZM36.8491 9.13024C19.7844 9.13024 8.58285 20.4448 8.58285 36.3348L8.58305 573.291C8.58305 589.181 19.6561 597.142 36.7208 597.142H240.188C257.252 597.142 268.435 589.181 268.435 573.291L268.435 36.3349C268.435 20.445 257.323 9.13024 240.259 9.13024L36.8491 9.13024Z" fill="#1E1E1F"/>
<path d="M146.088 21.3043C146.088 25.6745 142.545 29.2173 138.175 29.2173C133.805 29.2173 130.262 25.6745 130.262 21.3043C130.262 16.934 133.805 13.3912 138.175 13.3912C142.545 13.3912 146.088 16.934 146.088 21.3043Z" fill="#1E1E1F"/>
</svg>
