<svg width="129" height="128" viewBox="0 0 129 128" fill="none" xmlns="http://www.w3.org/2000/svg">
<path d="M88.6898 85.048L100.003 73.7344L83.0327 56.7638L101.889 37.9077L90.5751 26.594L71.7191 45.4501L54.7484 28.4796L43.4349 39.7933L88.6898 85.048ZM71.7191 30.3652L86.8039 15.2803C88.8871 13.1974 92.2636 13.1974 94.3463 15.2803L113.203 34.1364C115.285 36.2192 115.285 39.5961 113.203 41.6789L98.118 56.7638L111.317 69.9632C113.4 72.0459 113.4 75.423 111.317 77.5056L69.8338 118.989C67.7506 121.072 64.374 121.072 62.2908 118.989L9.49376 66.192C7.41093 64.1094 7.41093 60.7323 9.49376 58.6496L50.9773 17.1659C53.0602 15.0831 56.437 15.0831 58.5196 17.1659L71.7191 30.3652Z" fill="black"/>
</svg>
