<svg width="129" height="128" viewBox="0 0 129 128" fill="none" xmlns="http://www.w3.org/2000/svg">
<g clip-path="url(#clip0_878_385)">
<path d="M64.5007 6.30071e-05C79.3131 -0.00417105 93.6687 5.12803 105.121 14.5221C116.574 23.9162 124.414 36.9908 127.307 51.518C130.2 66.0452 127.966 81.1261 120.985 94.1906C114.005 107.255 102.71 117.495 89.0263 123.165C75.3421 128.836 60.1152 129.585 45.9402 125.287C31.7652 120.988 19.5194 111.907 11.2894 99.5917C3.05944 87.276 -0.645351 72.4876 0.806354 57.7465C2.25806 43.0054 8.77643 29.2237 19.2507 18.7501C25.1848 12.7962 32.2376 8.07449 40.0034 4.85662C47.7692 1.63875 56.0946 -0.011754 64.5007 6.30071e-05ZM64.0944 77.2709L54.7715 103.031C54.5423 103.677 54.1865 104.27 53.725 104.776C53.2635 105.283 52.7056 105.691 52.084 105.979C51.1502 106.417 50.1075 106.568 49.088 106.412C48.0685 106.257 47.1181 105.802 46.3572 105.106C45.5963 104.41 45.0592 103.504 44.814 102.502C44.5688 101.5 44.6265 100.448 44.9798 99.4792L51.4798 81.4792C51.9957 80.1248 52.4032 78.7315 52.6986 77.3126C52.9613 75.8719 53.149 74.4185 53.2611 72.9584C53.5111 70.323 53.6882 67.4688 53.8236 64.7292C53.959 61.9897 54.0528 59.3334 54.1257 57.1355C54.2194 54.3959 53.4798 54.2188 51.2819 53.698L50.8236 53.5938L32.0736 50.0626C31.3992 49.9436 30.755 49.6929 30.1776 49.3247C29.6003 48.9565 29.1012 48.478 28.709 47.9167C28.1263 47.0664 27.809 46.0623 27.7974 45.0316C27.7857 44.0009 28.0801 42.9899 28.6434 42.1266C29.2066 41.2633 30.0134 40.5865 30.9615 40.182C31.9096 39.7775 32.9564 39.6634 33.9694 39.8542L54.1153 43.6355C54.9173 43.7084 55.6986 43.8022 56.5215 43.8959C59.0006 44.2356 61.4986 44.42 64.0007 44.448C67.1153 44.3872 70.2242 44.1542 73.3132 43.7501C74.2507 43.6459 75.1361 43.5313 76.0215 43.448L95.0319 39.8855C96.3806 39.6058 97.7851 39.8717 98.9382 40.6251C99.5097 41.0118 99.9986 41.5081 100.377 42.0854C100.755 42.6627 101.014 43.3093 101.14 43.9877C101.266 44.6661 101.256 45.3628 101.111 46.0373C100.965 46.7118 100.687 47.3506 100.292 47.9167C99.9054 48.4816 99.411 48.9646 98.8372 49.3382C98.2635 49.7117 97.6217 49.9685 96.9486 50.0938L78.7819 53.5105C78.1778 53.6459 77.6361 53.7397 77.1569 53.8126C75.2611 54.1355 74.3236 54.3022 74.4382 57.0001C74.5215 58.9688 74.7611 61.323 75.0736 63.7813C75.4382 66.6667 75.9173 69.7292 76.4173 72.5313C76.7403 74.3751 77.0423 75.8542 77.459 77.2709C77.8757 78.6876 78.2819 80.1355 78.9069 81.8751L85.2715 99.4792C85.6248 100.448 85.6825 101.5 85.4373 102.502C85.1921 103.504 84.655 104.41 83.8942 105.106C83.1333 105.802 82.1829 106.257 81.1633 106.412C80.1438 106.568 79.1011 106.417 78.1673 105.979C77.5457 105.691 76.9878 105.283 76.5263 104.776C76.0648 104.27 75.7091 103.677 75.4798 103.031L66.1257 77.323L65.084 75.4167L64.0423 77.2709H64.0944ZM64.5007 21.5209C66.6288 21.5191 68.6916 22.2553 70.3378 23.604C71.9839 24.9526 73.1115 26.8304 73.5283 28.9173C73.9451 31.0041 73.6254 33.171 72.6236 35.0485C71.6219 36.9261 70.0001 38.3982 68.0345 39.214C66.069 40.0298 63.8815 40.1389 61.8446 39.5225C59.8077 38.9062 58.0476 37.6026 56.8641 35.834C55.6806 34.0653 55.1471 31.941 55.3543 29.823C55.5616 27.7051 56.4968 25.7245 58.0007 24.2188C58.8526 23.3626 59.8656 22.6834 60.9811 22.2204C62.0967 21.7574 63.2928 21.5196 64.5007 21.5209ZM102.365 26.1355C93.6163 17.3574 82.0941 11.8848 69.7622 10.6505C57.4303 9.41621 45.052 12.4966 34.7369 19.3666C24.4217 26.2366 16.8082 36.4711 13.1937 48.3258C9.5793 60.1806 10.1877 72.9219 14.9152 84.3783C19.6428 95.8347 28.1969 105.297 39.1197 111.153C50.0425 117.009 62.658 118.896 74.8162 116.492C86.9743 114.088 97.9227 107.543 105.795 97.9711C113.668 88.3993 117.978 76.3936 117.99 64.0001C118.006 56.9709 116.634 50.0079 113.952 43.5102C111.271 37.0126 107.333 31.1081 102.365 26.1355Z" fill="#201708"/>
</g>
<defs>
<clipPath id="clip0_878_385">
<rect width="128" height="128" fill="white" transform="translate(0.5)"/>
</clipPath>
</defs>
</svg>
