<svg width="16" height="16" viewBox="0 0 16 16" fill="none" xmlns="http://www.w3.org/2000/svg">
<path d="M12.0213 11.0778L14.8764 13.9329L13.9337 14.8757L11.0785 12.0206C10.0519 12.8419 8.74998 13.3333 7.33398 13.3333C4.02198 13.3333 1.33398 10.6453 1.33398 7.33325C1.33398 4.02125 4.02198 1.33325 7.33398 1.33325C10.646 1.33325 13.334 4.02125 13.334 7.33325C13.334 8.74925 12.8427 10.0512 12.0213 11.0778ZM10.6838 10.5831C11.499 9.74298 12.0007 8.59698 12.0007 7.33325C12.0007 4.75492 9.91232 2.66659 7.33398 2.66659C4.75565 2.66659 2.66732 4.75492 2.66732 7.33325C2.66732 9.91158 4.75565 11.9999 7.33398 11.9999C8.59772 11.9999 9.74372 11.4983 10.5838 10.6831L10.6838 10.5831Z" fill="#201708"/>
</svg>
