<svg width="16" height="16" viewBox="0 0 16 16" fill="none" xmlns="http://www.w3.org/2000/svg">
<g clip-path="url(#clip0_789_22)">
<path d="M3.417 2C2.50406 2 1.82853 2.79905 1.85877 3.66563C1.88778 4.49817 1.85009 5.57641 1.57863 6.45573C1.30636 7.33763 0.845886 7.89627 0.09375 7.968V8.77776C0.845886 8.84949 1.30636 9.40814 1.57863 10.29C1.85009 11.1694 1.88778 12.2476 1.85877 13.0801C1.82853 13.9466 2.50406 14.7458 3.41714 14.7458H12.7717C13.6847 14.7458 14.3601 13.9467 14.3298 13.0801C14.3008 12.2476 14.3385 11.1694 14.61 10.29C14.8824 9.40814 15.3416 8.84949 16.0938 8.77776V7.968C15.3416 7.89627 14.8824 7.33763 14.61 6.45573C14.3385 5.57654 14.3008 4.49817 14.3298 3.66563C14.3601 2.79919 13.6847 2 12.7717 2H3.41687H3.417ZM10.9412 9.84583C10.9412 11.0391 10.0512 11.7627 8.57416 11.7627H6.05985C5.91008 11.7627 5.78867 11.6413 5.78867 11.4915V5.25424C5.78867 5.10447 5.91008 4.98305 6.05985 4.98305H8.55978C9.79138 4.98305 10.5996 5.65017 10.5996 6.67444C10.5996 7.39336 10.0559 8.03702 9.36317 8.14969V8.18725C10.3062 8.29071 10.9412 8.94373 10.9412 9.84583ZM8.29999 5.84271H6.86636V7.86766H8.07382C9.00724 7.86766 9.52195 7.4918 9.52195 6.81993C9.52195 6.19037 9.07938 5.84271 8.29999 5.84271ZM6.86636 8.67119V10.9028H8.35273C9.32453 10.9028 9.83938 10.5128 9.83938 9.77993C9.83938 9.04692 9.31016 8.67105 8.29023 8.67105H6.86636V8.67119Z" fill="#7E13F8"/>
</g>
<defs>
<clipPath id="clip0_789_22">
<rect width="16" height="16" fill="white"/>
</clipPath>
</defs>
</svg>
