<svg width="159" height="201" viewBox="0 0 159 201" fill="none" xmlns="http://www.w3.org/2000/svg">
<path d="M0.640625 187.332C1.02214 178.478 2.50125 174.712 4.5184 172.875C2.00821 175.722 0.998665 181.707 0.640625 187.332Z" fill="#F08845"/>
<path d="M136.337 169.042C136.337 169.042 127.529 189.216 136.337 199.996H21.2852C29.8018 189.595 21.8682 171.15 21.3301 169.872C36.4147 170.007 60.8456 171.754 60.8456 171.754C82.2282 191.501 98.2774 171.754 98.2774 171.754C102.873 171.934 121.969 169.042 136.337 169.042Z" fill="#F08845"/>
<path d="M157.112 191.231C157.045 187.13 156.709 182.309 155.699 178.431C156.91 182.401 157.178 187.196 157.112 191.231Z" fill="#F08845"/>
<path d="M0.731059 199.996C0.731059 199.996 0.304541 194.639 0.59606 188.542C0.529539 191.702 0.551061 195.49 0.731059 199.996Z" fill="#FCFCFC"/>
<path d="M148.728 170.32C145.702 169.379 141.309 169.043 136.355 169.043C136.849 168.974 142.833 168.123 148.728 170.32Z" fill="#FCFCFC"/>
<path d="M155.568 178.007C154.693 175.205 153.326 172.852 151.264 171.462C151.465 171.574 151.69 171.687 151.892 171.82C153.619 172.875 154.783 175.16 155.568 178.007Z" fill="#FCFCFC"/>
<path d="M156.913 199.996H156.51C156.51 199.996 157.048 196.32 157.114 191.546C157.204 196.298 156.913 199.996 156.913 199.996Z" fill="#FCFCFC"/>
<path d="M62.5104 148.919V168.96C62.5104 170.605 61.0979 171.897 59.4583 171.748C48.451 170.754 11.1386 167.743 5.41779 172.034C-1.3067 177.077 1.21521 200 1.21521 200" stroke="#201708" stroke-width="1.1456" stroke-miterlimit="10" stroke-linecap="round" stroke-linejoin="round"/>
<path d="M95.7051 148.919V168.96C95.7051 170.605 97.1177 171.897 98.7572 171.748C109.764 170.754 147.077 167.743 152.798 172.034C159.522 177.077 157 200 157 200" stroke="#201708" stroke-width="1.1456" stroke-miterlimit="10" stroke-linecap="round" stroke-linejoin="round"/>
<path d="M63.4938 95.1112C63.4938 99.1436 61.5158 102.411 59.074 102.411C56.6323 102.411 54.6543 99.1416 54.6543 95.1112C54.6543 91.0789 56.6323 87.8096 59.074 87.8096C61.5158 87.8096 63.4938 91.0789 63.4938 95.1112Z" fill="#201708"/>
<path d="M44.901 90.3337C46.5738 88.9485 48.317 87.9682 50.2676 87.1974C52.1967 86.4324 54.2746 85.9589 56.4111 85.8709C58.5515 85.822 60.7447 86.2602 62.6601 87.2091C64.6362 88.0896 66.084 89.7232 67.2462 91.3217C67.3851 91.5115 67.342 91.7775 67.1522 91.9164C67.0075 92.0221 66.8177 92.0221 66.6749 91.9321L66.626 91.9008C65.0079 90.8736 63.4721 89.911 61.7562 89.5373C60.0736 89.1284 58.3715 89.0208 56.6634 89.2537C54.9574 89.4943 53.2709 89.9913 51.6118 90.6271C49.984 91.2767 48.274 92.0632 46.789 92.8908L46.6892 92.9456C45.9223 93.3721 44.9557 93.0982 44.5273 92.3312C44.1477 91.6504 44.3238 90.813 44.901 90.3337Z" fill="#201708"/>
<path d="M94.7324 95.1112C94.7324 99.1436 96.7104 102.411 99.1522 102.411C101.592 102.411 103.572 99.1416 103.572 95.1112C103.572 91.0789 101.594 87.8096 99.1522 87.8096C96.7104 87.8115 94.7324 91.0789 94.7324 95.1112Z" fill="#201708"/>
<path d="M111.439 92.8889C109.956 92.0613 108.244 91.2747 106.616 90.6252C104.959 89.9913 103.273 89.4924 101.565 89.2517C99.8586 89.0189 98.1564 89.1265 96.4719 89.5354C94.756 89.9091 93.2182 90.8736 91.6021 91.8989L91.5552 91.9302C91.3556 92.0554 91.0935 91.9967 90.9663 91.7991C90.8704 91.6484 90.8822 91.4567 90.9819 91.3197C92.1441 89.7193 93.5919 88.0876 95.568 87.2072C97.4814 86.2583 99.6747 85.82 101.817 85.8689C103.954 85.957 106.033 86.4304 107.96 87.1954C109.909 87.9663 111.654 88.9465 113.327 90.3317C114.002 90.8913 114.096 91.893 113.536 92.5699C113.04 93.1686 112.196 93.3115 111.539 92.9456L111.439 92.8889Z" fill="#201708"/>
<path d="M77.2109 120.11C80.7072 119.198 83.9921 118.343 87.0208 116.96C88.5273 116.267 89.9144 115.402 91.2273 114.397C92.5303 113.36 93.5907 112.078 94.7294 110.634C94.4672 112.421 93.7003 114.213 92.456 115.641C91.2214 117.073 89.6425 118.178 87.9599 118.992C86.248 119.742 84.4519 120.235 82.6324 120.423C80.8207 120.614 78.9796 120.583 77.2109 120.11Z" fill="#201708"/>
<path d="M76.2622 90.5024C76.2622 90.5024 73.6464 108.06 76.2622 108.622C78.878 109.181 82.613 108.622 82.613 108.622" stroke="#201708" stroke-width="1.1456" stroke-miterlimit="10" stroke-linecap="round" stroke-linejoin="round"/>
<path d="M136.926 78.1C136.926 114.489 111.042 151.273 79.1095 151.273C47.1794 151.273 21.2949 114.487 21.2949 78.1C21.2949 41.713 47.1794 12.2129 79.1095 12.2129C111.042 12.2129 136.926 41.711 136.926 78.1Z" stroke="#201708" stroke-width="1.0933" stroke-miterlimit="10" stroke-linecap="round" stroke-linejoin="round"/>
<path d="M21.7134 86.1606C21.7134 86.1606 18.4675 79.5105 12.3026 81.7429C6.13963 83.9752 9.14091 108.868 25.3838 103.519" stroke="#201708" stroke-width="1.0933" stroke-miterlimit="10" stroke-linecap="round" stroke-linejoin="round"/>
<path d="M136.184 86.1606C136.184 86.1606 139.43 79.5105 145.595 81.7429C151.76 83.9752 148.757 108.868 132.514 103.519" stroke="#201708" stroke-width="1.0933" stroke-miterlimit="10" stroke-linecap="round" stroke-linejoin="round"/>
<path d="M16.5569 80.628C21.6614 83.1304 21.7162 86.161 21.7162 86.161C52.7209 78.7361 47.3072 54.36 47.3072 54.36C47.3072 54.36 89.1744 92.1733 136.929 84.9636L143.548 81.2834L144.616 68.844C145.117 63.0156 145.066 57.1304 144.103 51.3607C137.261 10.3192 96.3626 -0.251783 68.8816 0.0045183C38.9021 0.284298 28.5366 26.341 28.5366 26.341C28.5366 26.341 -0.22011 38.8665 11.3565 82.3341C11.3565 82.3341 14.9859 79.8571 16.5569 80.628Z" fill="#201708"/>
<path d="M47.7695 52.8657C50.7082 56.3385 53.8425 59.5902 57.0316 62.7519C60.2618 65.8706 63.5878 68.8777 67.1585 71.5562C70.7252 74.2346 74.5012 76.5942 78.4866 78.582C82.5385 80.4191 86.7822 81.8082 91.29 82.5654C86.7372 82.6847 82.1218 81.8317 77.794 80.1882C73.5034 78.4587 69.5121 76.0776 65.8085 73.3424C62.1518 70.5427 58.8003 67.381 55.7697 63.9513C52.7371 60.5293 50.0019 56.8394 47.7695 52.8657Z" fill="#201708"/>
<path d="M28.5361 27.603C23.4413 29.5752 18.9081 32.7153 15.3767 36.6577C11.8374 40.602 9.45429 45.4385 8.31952 50.5782L7.59956 54.4756L7.43328 58.4571C7.41762 59.1203 7.31195 59.7855 7.37064 60.4527L7.53108 62.4522L7.82066 66.463C8.32348 69.1004 8.74017 71.773 9.28995 74.426C9.97081 77.0497 10.7261 79.6596 11.3541 82.3381C10.2526 79.8416 9.28021 77.2786 8.23348 74.7273C7.41957 72.1076 6.75633 69.4213 6.09308 66.737L5.57261 62.6068L5.32804 60.5349C5.24196 59.8442 5.32026 59.1418 5.30852 58.4434L5.41808 54.2486L6.13022 50.0911C7.37651 44.6089 10.0823 39.3851 14.1147 35.4564C18.0825 31.4788 23.1792 28.7456 28.5361 27.603Z" fill="#201708"/>
</svg>
