<svg width="1000" height="535" viewBox="0 0 1000 535" fill="none" xmlns="http://www.w3.org/2000/svg">
<g opacity="0.63" clip-path="url(#clip0_1075_5)">
<path d="M557.763 1.65261e-10C607.384 -6.5965e-05 654.974 19.7126 690.063 54.8023C725.152 89.8921 744.866 137.484 744.868 187.11C744.818 189.395 744.726 191.679 744.591 193.961C767.835 182.546 793.846 176.154 821.304 176.154C919.995 176.154 1000 258.676 1000 360.482C1000 426.433 960.575 508.5 899.024 526.874C863.084 537.605 831.842 534.298 796.952 534.592C794.853 534.614 792.776 534.597 790.71 534.546L164.442 534.193C163.631 534.2 162.82 534.216 162.01 534.216C131.668 534.216 92.5994 536.746 69.9239 524.432C28.9013 502.153 -2.05258e-05 452.414 -2.05258e-05 382.109C-2.05258e-05 277.594 75.1433 192.867 167.835 192.867C182.35 192.867 196.427 194.939 209.859 198.844C223.797 171.534 245.171 148.575 271.594 132.531C298.018 116.487 328.45 107.989 359.495 107.986C368.764 108.013 378.016 108.798 387.153 110.333C401.951 77.4753 425.922 49.5901 456.184 30.0279C486.446 10.4658 521.729 0.00110086 557.763 1.65261e-10Z" fill="white"/>
</g>
<defs>
<clipPath id="clip0_1075_5">
<rect width="1000" height="534.852" fill="white" transform="matrix(-1 0 0 1 1000 0)"/>
</clipPath>
</defs>
</svg>
