<svg width="16" height="16" viewBox="0 0 16 16" fill="none" xmlns="http://www.w3.org/2000/svg">
<g clip-path="url(#clip0_800_6)">
<path d="M7.99935 12.0001C5.79021 12.0001 3.99935 10.2092 3.99935 8.00008C3.99935 5.79094 5.79021 4.00008 7.99935 4.00008C10.2085 4.00008 11.9993 5.79094 11.9993 8.00008C11.9993 10.2092 10.2085 12.0001 7.99935 12.0001ZM7.99935 10.6667C9.47208 10.6667 10.666 9.47281 10.666 8.00008C10.666 6.52732 9.47208 5.33342 7.99935 5.33342C6.52659 5.33342 5.33268 6.52732 5.33268 8.00008C5.33268 9.47281 6.52659 10.6667 7.99935 10.6667ZM7.33268 0.666748H8.66602V2.66675H7.33268V0.666748ZM7.33268 13.3334H8.66602V15.3334H7.33268V13.3334ZM2.3425 3.28603L3.2853 2.34323L4.69952 3.75744L3.75671 4.70025L2.3425 3.28603ZM11.2991 12.2427L12.242 11.2999L13.6562 12.7141L12.7134 13.6569L11.2991 12.2427ZM12.7134 2.34323L13.6562 3.28603L12.242 4.70025L11.2991 3.75744L12.7134 2.34323ZM3.75671 11.2999L4.69952 12.2427L3.2853 13.6569L2.3425 12.7141L3.75671 11.2999ZM15.3327 7.33342V8.66675H13.3327V7.33342H15.3327ZM2.66602 7.33342V8.66675H0.666016V7.33342H2.66602Z" fill="#201708"/>
</g>
<defs>
<clipPath id="clip0_800_6">
<rect width="16" height="16" fill="white"/>
</clipPath>
</defs>
</svg>
