<svg width="16" height="16" viewBox="0 0 16 16" fill="none" xmlns="http://www.w3.org/2000/svg">
<g clip-path="url(#clip0_878_391)">
<path d="M0 0H13.44C14.119 0 14.7701 0.269714 15.2502 0.749807C15.7303 1.2299 16 1.88105 16 2.56V13.44C16 14.119 15.7303 14.7701 15.2502 15.2502C14.7701 15.7303 14.119 16 13.44 16H2.56C1.88105 16 1.2299 15.7303 0.749807 15.2502C0.269714 14.7701 0 14.119 0 13.44L0 0Z" fill="#663399"/>
<path d="M13.0638 14.7184C12.5456 14.7184 12.1493 14.5677 11.8718 14.2648C11.5974 13.9604 11.4546 13.526 11.4418 12.9586H12.5586C12.565 13.4604 12.7413 13.7119 13.0878 13.7119C13.2645 13.7119 13.3896 13.6559 13.4618 13.5452C13.5323 13.4348 13.5693 13.2583 13.5693 13.0164C13.5693 12.824 13.5211 12.6637 13.428 12.5372C13.3016 12.3866 13.1394 12.2703 12.9563 12.1989L12.5424 12C12.1734 11.8237 11.9054 11.6154 11.7402 11.3717C11.5797 11.1296 11.4995 10.79 11.4995 10.3557C11.4995 9.86996 11.6408 9.47572 11.9214 9.17268C12.2102 8.8698 12.6034 8.71924 13.1054 8.71924C13.5902 8.71924 13.9656 8.8682 14.2302 9.16468C14.4998 9.46292 14.641 9.88916 14.6523 10.4469H13.5773C13.5837 10.2645 13.5469 10.0834 13.4698 9.91796C13.409 9.79636 13.2901 9.7354 13.1136 9.7354C12.7992 9.7354 12.6419 9.92276 12.6419 10.2962C12.6419 10.4855 12.6803 10.6328 12.7574 10.745C12.8685 10.8691 13.0077 10.9648 13.1634 11.024L13.5597 11.1988C13.9688 11.3863 14.264 11.6156 14.4453 11.8928C14.6282 12.1685 14.7181 12.5372 14.7181 12.9988C14.7181 13.5517 14.5736 13.9764 14.28 14.2728C13.988 14.5693 13.5819 14.7184 13.0638 14.7184ZM9.45712 14.7184C8.93871 14.7184 8.54256 14.5677 8.26496 14.2648C7.99056 13.9604 7.84784 13.526 7.83504 12.9586H8.95168C8.95808 13.4604 9.13456 13.7119 9.48128 13.7119C9.6576 13.7119 9.78272 13.6559 9.85328 13.5452C9.9256 13.4348 9.9608 13.2583 9.9608 13.0164C9.9608 12.824 9.91439 12.6637 9.82127 12.5372C9.69492 12.3866 9.53271 12.2703 9.3496 12.1989L8.93567 12C8.56655 11.8237 8.29872 11.6154 8.13344 11.3717C7.97296 11.1296 7.8928 10.79 7.8928 10.3557C7.8928 9.86996 8.03392 9.47572 8.31472 9.17268C8.60352 8.8698 8.99664 8.71924 9.49872 8.71924C9.98336 8.71924 10.3587 8.8682 10.6219 9.16468C10.8947 9.46292 11.0342 9.88916 11.0454 10.4469H9.97056C9.97696 10.2645 9.94016 10.0834 9.86304 9.91796C9.80208 9.79636 9.68335 9.7354 9.50688 9.7354C9.19232 9.7354 9.03504 9.92276 9.03504 10.2962C9.03504 10.4855 9.07359 10.6328 9.15055 10.745C9.26164 10.8691 9.40083 10.9648 9.55647 11.024L9.9528 11.1988C10.3619 11.3863 10.6571 11.6156 10.8386 11.8928C11.0198 12.1685 11.1112 12.5372 11.1112 12.9988C11.1112 13.5517 10.9653 13.9764 10.6733 14.2728C10.3813 14.5693 9.97536 14.7184 9.45712 14.7184ZM5.70112 14.7184C5.19392 14.7184 4.79136 14.5805 4.49296 14.3048C4.19456 14.0309 4.04688 13.6189 4.04688 13.074V10.3813C4.04688 9.83972 4.20416 9.42932 4.51856 9.14724C4.83792 8.86836 5.25664 8.7274 5.77488 8.7274C6.27712 8.7274 6.67327 8.87156 6.96688 9.15684C7.26383 9.44372 7.41296 9.87012 7.41296 10.4391V10.6522H6.23056V10.4455C6.23056 10.226 6.18239 10.064 6.08927 9.95828C6.0486 9.9054 5.99601 9.86287 5.93579 9.83418C5.87556 9.80548 5.80941 9.79143 5.74271 9.79316C5.55023 9.79316 5.41392 9.85876 5.3368 9.99188C5.25471 10.176 5.21785 10.3771 5.22928 10.5784V12.9186C5.22928 13.4074 5.40112 13.6559 5.74288 13.6607C5.9032 13.6607 6.02352 13.6029 6.10704 13.4876C6.19774 13.3418 6.2409 13.1715 6.23056 13.0002V12.8256H7.41296V13.0084C7.41296 13.3882 7.3392 13.7055 7.18992 13.9588C7.04802 14.2059 6.83507 14.4047 6.57872 14.5293C6.30495 14.66 6.0044 14.7248 5.70112 14.7184Z" fill="white"/>
</g>
<defs>
<clipPath id="clip0_878_391">
<rect width="16" height="16" fill="white"/>
</clipPath>
</defs>
</svg>
