<svg width="20" height="20" viewBox="0 0 20 20" fill="none" xmlns="http://www.w3.org/2000/svg">
<g clip-path="url(#clip0_308_155)">
<path d="M9.99953 10C9.99953 5.55689 16.6664 5.55689 16.6664 10C16.6664 14.4431 9.99953 14.4431 9.99953 10ZM3.33266 16.6669C3.33266 14.8244 4.82328 13.3338 6.66578 13.3338H9.99891V16.6669C9.99891 21.11 3.33203 21.11 3.33203 16.6669H3.33266ZM9.99953 1.46485e-05V6.66689H13.3327C17.7758 6.66689 17.7758 1.46485e-05 13.3327 1.46485e-05H9.99953ZM3.33266 3.33314C3.33266 5.17564 4.82328 6.66627 6.66578 6.66627H9.99891V-0.000610352H6.66578C4.82328 -0.000610352 3.33266 1.49001 3.33266 3.33251V3.33314ZM3.33266 10C3.33266 11.8425 4.82328 13.3338 6.66578 13.3338H9.99891V6.66627H6.66578C4.82328 6.66627 3.33266 8.15751 3.33266 10Z" fill="black"/>
</g>
<defs>
<clipPath id="clip0_308_155">
<rect width="20" height="20" fill="white"/>
</clipPath>
</defs>
</svg>
