<svg width="207" height="200" viewBox="0 0 207 200" fill="none" xmlns="http://www.w3.org/2000/svg">
<path d="M26.957 200L28.8857 182.921C28.8857 182.921 60.6525 194.37 73.5165 166.229C73.5165 166.229 84.3077 171.081 91.8522 169.205C91.8522 169.205 107.637 192.398 123.042 169.205C123.042 169.205 126.506 173.24 141.154 166.229C141.154 166.229 154.835 195.113 185.785 182.921L187.937 200H26.957Z" fill="#E9C46A"/>
<path d="M91.6739 94.0635C91.6739 98.1362 89.6761 101.436 87.21 101.436C84.7439 101.436 82.7461 98.1342 82.7461 94.0635C82.7461 89.9909 84.7439 86.689 87.21 86.689C89.6761 86.689 91.6739 89.9909 91.6739 94.0635Z" fill="#201708"/>
<path d="M72.8954 89.2386C74.5849 87.8396 76.3456 86.8496 78.3137 86.071C80.2621 85.2984 82.3607 84.8202 84.5185 84.7313C86.6803 84.6819 88.8954 85.1245 90.83 86.0829C92.8258 86.9721 94.288 88.6221 95.4618 90.2365C95.6021 90.4282 95.5586 90.6969 95.3669 90.8372C95.2207 90.9439 95.0291 90.9439 94.8848 90.853L94.8354 90.8214C93.2012 89.784 91.65 88.8118 89.917 88.4343C88.2176 88.0213 86.4985 87.9127 84.7734 88.1478C83.0503 88.3909 81.3469 88.8928 79.6713 89.535C78.0272 90.1911 76.2982 90.9854 74.8003 91.8213L74.6996 91.8766C73.925 92.3074 72.9488 92.0308 72.516 91.2561C72.1327 90.5685 72.3085 89.7227 72.8954 89.2386Z" fill="#201708"/>
<path d="M69.8775 87.1224L74.2761 89.8849C74.8136 90.2228 74.9756 90.9322 74.6377 91.4697C74.2998 92.0072 73.5904 92.1692 73.0529 91.8313C72.9364 91.7582 72.8356 91.6633 72.7546 91.5606L69.5771 87.4524C69.5 87.3536 69.5178 87.2113 69.6186 87.1342C69.6956 87.075 69.8004 87.073 69.8775 87.1224Z" fill="#201708"/>
<path d="M123.223 94.0635C123.223 98.1362 125.22 101.436 127.687 101.436C130.151 101.436 132.15 98.1342 132.15 94.0635C132.15 89.9909 130.153 86.689 127.687 86.689C125.22 86.6909 123.223 89.9909 123.223 94.0635Z" fill="#201708"/>
<path d="M140.095 91.8194C138.598 90.9835 136.869 90.1891 135.224 89.5331C133.549 88.8928 131.847 88.3889 130.122 88.1459C128.399 87.9107 126.68 88.0194 124.979 88.4324C123.246 88.8098 121.693 89.784 120.06 90.8195L120.013 90.8511C119.811 90.9776 119.547 90.9183 119.418 90.7187C119.321 90.5665 119.333 90.3729 119.434 90.2346C120.608 88.6182 122.07 86.9701 124.066 86.0809C125.998 85.1225 128.213 84.6799 130.377 84.7293C132.535 84.8182 134.634 85.2964 136.582 86.0691C138.55 86.8476 140.313 87.8376 142.002 89.2367C142.684 89.8018 142.779 90.8135 142.214 91.4972C141.712 92.1019 140.86 92.2462 140.196 91.8766L140.095 91.8194Z" fill="#201708"/>
<path d="M145.318 87.4517L142.141 91.5599C141.751 92.0618 141.03 92.1547 140.528 91.7654C140.026 91.3761 139.934 90.6549 140.323 90.153C140.408 90.0443 140.511 89.9514 140.621 89.8822L145.02 87.1197C145.127 87.0525 145.267 87.0842 145.332 87.1909C145.383 87.2758 145.374 87.3786 145.318 87.4517Z" fill="#201708"/>
<path d="M106.784 99.8975C106.134 101.864 105.498 103.454 105.42 104.958C105.337 105.703 105.452 106.418 105.695 107.191C105.91 107.985 106.363 108.756 106.784 109.744C105.778 109.493 104.806 108.952 104.148 108.045C103.433 107.185 103.081 105.966 103.162 104.818C103.259 103.668 103.682 102.611 104.33 101.773C104.968 100.935 105.776 100.247 106.784 99.8975Z" fill="#201708"/>
<path d="M105.525 119.312C109.057 118.391 112.374 117.527 115.433 116.13C116.955 115.431 118.356 114.557 119.682 113.542C120.998 112.494 122.069 111.2 123.219 109.742C122.954 111.546 122.18 113.356 120.923 114.798C119.676 116.245 118.079 117.361 116.382 118.183C114.653 118.94 112.839 119.438 111.001 119.628C109.171 119.821 107.312 119.79 105.525 119.312Z" fill="#201708"/>
<path d="M98.8651 149.903C76.7216 145.323 58.6231 123.498 51.8848 98.1411" stroke="#201708" stroke-width="1.0933" stroke-miterlimit="10" stroke-linecap="round" stroke-linejoin="round"/>
<path d="M162.523 99.897C155.563 124.034 138.328 144.633 117.256 149.63" stroke="#201708" stroke-width="1.0933" stroke-miterlimit="10" stroke-linecap="round" stroke-linejoin="round"/>
<path d="M49.4796 85.0238C49.4796 85.0238 46.2013 78.3072 39.9748 80.5619C33.7503 82.8166 36.7815 107.958 53.1866 102.555" stroke="#201708" stroke-width="1.0933" stroke-miterlimit="10" stroke-linecap="round" stroke-linejoin="round"/>
<path d="M165.09 85.0238C165.09 85.0238 168.369 78.3072 174.595 80.5619C180.82 82.8166 178.085 108.051 161.678 102.65" stroke="#201708" stroke-width="1.0933" stroke-miterlimit="10" stroke-linecap="round" stroke-linejoin="round"/>
<path d="M185.598 47.5767C185.598 47.5767 211.839 62.1401 204.236 87.2872C196.632 112.434 182.861 123.951 190.125 144.27" stroke="#201708" stroke-width="1.1456" stroke-miterlimit="10" stroke-linecap="round" stroke-linejoin="round"/>
<path d="M39.582 49.0488C39.582 49.0488 39.5821 1.1318 82.4048 9.9983" stroke="#201708" stroke-width="1.1456" stroke-miterlimit="10" stroke-linecap="round" stroke-linejoin="round"/>
<path d="M104.27 42.2593C104.27 42.2593 114.42 71.1233 141.05 80.9324" stroke="#201708" stroke-width="1.1456" stroke-miterlimit="10" stroke-linecap="round" stroke-linejoin="round"/>
<path d="M104.268 42.2586C104.268 42.2586 112.828 77.5724 49.0537 83.1192C49.0537 83.1192 37.2034 74.6756 36.992 88.4624C36.992 88.4624 37.7072 107.77 53.1856 102.557C53.1856 102.557 65.6367 138.567 91.6749 147.761C91.6749 147.761 96.7336 166.785 91.8528 169.207C91.8528 169.207 88.0172 170.205 82.9131 169.359C72.0666 167.565 54.0827 163.135 45.0799 163.088C34.014 163.028 30.4019 169.474 28.6867 184.668C28.6867 184.668 2.21563 175.452 0.537969 156.582C-1.13771 137.713 8.00537 124.29 16.9944 111.402C25.9814 98.5145 36.33 85.6801 36.5552 62.4597C36.7805 39.2392 55.8256 -6.78276 91.6729 11.9837C91.6729 11.9837 92.8842 10.8218 95.0954 9.17377C116.968 -7.12263 148.036 -1.00481 162.757 21.9588C168.035 30.1929 175.05 39.6937 180.779 42.4305C191.473 47.5386 205.769 66.7081 198.81 89.0058C191.848 111.303 175.882 124.573 195.374 149.631C195.374 149.631 220.189 180.147 186.327 187.229C186.327 187.229 185.442 163.724 164.869 162.509C142.649 161.196 131.854 174.333 123.041 169.205C123.041 169.205 120.071 165.603 123.041 148.639C123.041 148.639 152.985 135.686 161.382 102.554C161.382 102.554 175.597 107.264 177.593 89.0038C177.593 89.0038 176.803 73.0967 165.84 84.1823C165.84 84.1823 117.235 78.2897 104.268 42.2586Z" fill="#201708"/>
<path d="M106.783 37.73C108.633 40.1487 110.611 42.4626 112.638 44.7252C114.644 47.0075 116.711 49.2345 118.851 51.3844C123.129 55.6843 127.587 59.8162 132.436 63.4442C137.212 67.1572 142.372 70.39 147.879 72.8719C153.374 75.3597 159.312 76.9741 165.41 77.1579C162.365 77.2547 159.306 76.988 156.297 76.4149C153.287 75.8201 150.377 74.8163 147.535 73.6702C141.864 71.3147 136.631 68.0227 131.75 64.3413C126.907 60.5987 122.398 56.4431 118.226 51.9851C114.061 47.5212 110.194 42.7807 106.783 37.73Z" fill="#EBEBEB"/>
<path d="M33.3579 95.9219C30.8384 98.959 28.4435 102.095 26.1275 105.28C23.7879 108.448 21.5253 111.675 19.3912 114.981C15.1309 121.579 11.1393 128.424 8.52101 135.796C7.26424 139.466 6.22681 143.307 6.39873 147.157C6.39478 148.121 6.57465 149.058 6.73866 150.004L7.46979 152.826C8.08236 154.668 8.76013 156.491 9.65725 158.221C11.4357 161.671 13.8682 164.817 16.8639 167.332C19.822 169.879 23.2169 172.003 26.9575 173.272C19.3991 171.013 12.6825 165.694 8.88657 158.628C7.9104 156.877 7.16745 155.013 6.53315 153.114L5.75655 150.216C5.57476 149.228 5.37712 148.212 5.36922 147.202C5.15778 143.135 6.1992 139.183 7.45399 135.421C10.2145 127.936 14.2278 121.035 18.67 114.501C23.126 107.966 28.0482 101.763 33.3579 95.9219Z" fill="#EBEBEB"/>
<path d="M56.8457 77.1616C61.2878 75.9028 65.6529 74.4247 69.9231 72.7273C74.1834 71.0161 78.3766 69.1171 82.301 66.7617C86.259 64.4813 89.9681 61.7366 93.027 58.3654C96.0997 55.024 98.2813 50.8189 98.8682 46.2207C98.7595 50.8684 96.7163 55.3836 93.685 58.9365C90.6676 62.5349 86.8519 65.3428 82.8741 67.7378C78.8351 70.0517 74.5964 71.9883 70.2294 73.5395C65.8604 75.0788 61.3985 76.3573 56.8457 77.1616Z" fill="#EBEBEB"/>
</svg>
