<svg width="17" height="16" viewBox="0 0 17 16" fill="none" xmlns="http://www.w3.org/2000/svg">
<g clip-path="url(#clip0_788_81)">
<g opacity="0.783">
<g filter="url(#filter0_f_788_81)">
<path d="M7.26701 1.57574L2.15129 6.81563C0.214269 8.75265 3.40539 8.59123 4.56015 9.32382C5.09407 9.67149 2.84663 10.1185 3.30605 10.5779C3.75306 11.0373 6.0005 11.4595 6.4475 11.9065C6.89451 12.3659 5.54108 12.8502 5.98808 13.3096C6.42267 13.769 7.46568 13.3344 7.65193 14.3775C7.78852 15.1473 9.56412 14.7624 10.3588 14.1043C10.8555 13.6821 9.50204 13.6821 9.94904 13.2227C11.0666 12.0928 12.0599 12.7136 12.4697 11.6706C12.6932 11.1118 10.781 10.7145 11.2901 10.3544C12.5069 9.49766 16.9769 9.06307 14.9158 7.00188L9.61379 1.57574C8.9557 0.954897 7.87543 0.954897 7.26701 1.57574ZM13.1402 11.6706C13.1402 11.9313 15.1641 12.0804 15.0523 11.6085C14.8909 10.8138 13.3637 10.8759 13.1402 11.6706ZM4.51048 13.0489C4.9699 13.4462 5.66525 12.9619 5.88875 12.4032C5.44174 11.8196 3.79031 12.4404 4.51048 13.0489ZM12.8918 12.2169C12.3206 12.7384 12.9912 13.2848 13.5499 12.9247C13.6989 12.8254 13.5375 12.3411 12.8918 12.2169Z" fill="black"/>
</g>
<g opacity="0.576" filter="url(#filter1_f_788_81)">
<path d="M7.26701 1.69708L2.15129 6.93696C0.214269 8.87399 3.40539 8.71257 4.56015 9.44516C5.09407 9.79283 2.84663 10.2398 3.30605 10.6993C3.75306 11.1587 6.0005 11.5808 6.4475 12.0279C6.89451 12.4873 5.54108 12.9715 5.98808 13.431C6.42267 13.8904 7.46568 13.4558 7.65193 14.4988C7.78852 15.2686 9.56412 14.8837 10.3588 14.2256C10.8555 13.8035 9.50204 13.8035 9.94904 13.344C11.0666 12.2141 12.0599 12.8349 12.4697 11.7919C12.6932 11.2332 10.781 10.8358 11.2901 10.4758C12.5069 9.61899 16.9769 9.18441 14.9158 7.12322L9.61379 1.69708C8.9557 1.07624 7.87543 1.07624 7.26701 1.69708ZM13.1402 11.7919C13.1402 12.0527 15.1641 12.2017 15.0523 11.7298C14.8909 10.9352 13.3637 10.9973 13.1402 11.7919ZM4.51048 13.1702C4.9699 13.5675 5.66525 13.0833 5.88875 12.5245C5.44174 11.9409 3.79031 12.5618 4.51048 13.1702ZM12.8918 12.3383C12.3206 12.8598 12.9912 13.4061 13.5499 13.046C13.6989 12.9467 13.5375 12.4624 12.8918 12.3383Z" fill="black"/>
</g>
</g>
<path d="M7.26701 1.45464L2.15129 6.69453C0.214269 8.63155 3.40539 8.47014 4.56015 9.20273C5.09407 9.5504 2.84663 9.9974 3.30605 10.4568C3.75306 10.9162 6.0005 11.3384 6.4475 11.7854C6.89451 12.2448 5.54108 12.7291 5.98808 13.1885C6.42267 13.6479 7.46568 13.2134 7.65193 14.2564C7.78852 15.0262 9.56412 14.6413 10.3588 13.9832C10.8555 13.561 9.50204 13.561 9.94904 13.1016C11.0666 11.9717 12.0599 12.5925 12.4697 11.5495C12.6932 10.9907 10.781 10.5934 11.2901 10.2333C12.5069 9.37656 16.9769 8.94197 14.9158 6.88079L9.61379 1.45464C8.9557 0.833804 7.87543 0.833804 7.26701 1.45464ZM13.1402 11.5495C13.1402 11.8103 15.1641 11.9593 15.0523 11.4874C14.8909 10.6927 13.3637 10.7548 13.1402 11.5495ZM4.51048 12.9278C4.9699 13.3251 5.66525 12.8408 5.88875 12.2821C5.44174 11.6985 3.79031 12.3193 4.51048 12.9278ZM12.8918 12.0958C12.3206 12.6173 12.9912 13.1637 13.5499 12.8036C13.6989 12.7043 13.5375 12.22 12.8918 12.0958Z" fill="black"/>
<path opacity="0.505" d="M2.60716 6.98508C1.21623 8.36335 3.65973 7.97508 5.53938 8.71437L9.42398 1.88513C8.83505 1.28366 8.08321 1.33383 7.54432 1.88513L2.60716 6.98508Z" fill="url(#paint0_linear_788_81)"/>
<path d="M9.30357 1.82723L11.3275 3.88842C11.5138 4.07467 11.5138 4.45959 11.402 4.57134L10.3963 3.75183L10.1976 4.95626L9.36566 4.50926L8.01222 5.36602L7.56522 3.56558L6.84505 5.1301L5.04461 5.11768C4.69694 5.11768 4.74661 4.7576 5.10669 4.39751C5.81445 3.61525 7.19272 2.28665 7.6273 1.82723C8.07431 1.36781 8.85657 1.38023 9.30357 1.82723Z" fill="url(#paint1_linear_788_81)"/>
<path opacity="0.217" fillRule="evenodd" clipRule="evenodd" d="M6.5258 11.5642C6.5258 11.5642 6.74546 11.8996 6.7231 12.0574C6.67917 12.3672 6.01218 12.5216 6.16002 12.7973C6.30602 13.0696 6.83214 12.9153 7.27395 13.2001C7.71379 13.4838 7.59554 14.0616 7.91516 14.2072C8.53862 14.4908 10.1758 13.7181 10.0936 13.7345C10.0114 13.751 8.47779 14.0696 8.13252 13.7901C7.73885 13.4714 7.62599 13.2489 7.33564 13.0604C7.0635 12.8839 6.68127 12.8118 6.59236 12.6672C6.50344 12.5225 6.77058 12.336 6.78965 12.0575C6.80083 11.8902 6.52659 11.5643 6.52659 11.5643L6.5258 11.5642Z" fill="url(#paint2_radial_788_81)"/>
<g opacity="0.276" filter="url(#filter2_f_788_81)">
<path fillRule="evenodd" clipRule="evenodd" d="M6.5258 11.5642C6.5258 11.5642 6.74546 11.8996 6.7231 12.0574C6.67917 12.3672 6.01218 12.5216 6.16002 12.7973C6.30602 13.0696 6.83214 12.9153 7.27395 13.2001C7.71379 13.4838 7.59554 14.0616 7.91516 14.2072C8.53862 14.4908 10.1758 13.7181 10.0936 13.7345C7.3749 13.7449 7.88228 13.0443 6.83418 12.5836C6.68272 12.5171 6.77052 12.3362 6.789 12.0575C6.80018 11.8902 6.52594 11.5643 6.52594 11.5643L6.5258 11.5642Z" fill="url(#paint3_radial_788_81)"/>
</g>
<path opacity="0.453" fillRule="evenodd" clipRule="evenodd" d="M11.1467 10.1338C13.5869 9.2358 14.3708 9.11249 15.1748 8.30884C14.2436 9.095 12.2747 9.51668 10.6699 10.216L11.1467 10.1338Z" fill="url(#paint4_radial_788_81)"/>
<g opacity="0.512" filter="url(#filter3_f_788_81)">
<path fillRule="evenodd" clipRule="evenodd" d="M11.1448 10.0188C15.1633 8.59469 14.4839 8.60291 15.1729 8.19385C13.8952 8.68294 11.5075 8.7351 10.668 10.101L11.1448 10.0188Z" fill="url(#paint5_radial_788_81)"/>
</g>
<path opacity="0.286" d="M14.6554 11.1574C14.6554 11.1999 14.6004 11.2407 14.5025 11.2707C14.4046 11.3008 14.2718 11.3177 14.1333 11.3177C13.9949 11.3177 13.8621 11.3008 13.7642 11.2707C13.6663 11.2407 13.6113 11.1999 13.6113 11.1574C13.6113 11.1149 13.6663 11.0741 13.7642 11.044C13.8621 11.014 13.9949 10.9971 14.1333 10.9971C14.2718 10.9971 14.4046 11.014 14.5025 11.044C14.6004 11.0741 14.6554 11.1149 14.6554 11.1574Z" fill="url(#paint6_linear_788_81)"/>
<g opacity="0.62" filter="url(#filter4_f_788_81)">
<path d="M14.8374 11.3423C14.8374 11.4339 14.7633 11.5217 14.6315 11.5865C14.4997 11.6512 14.3209 11.6876 14.1345 11.6876C13.9481 11.6876 13.7693 11.6512 13.6375 11.5865C13.5057 11.5217 13.4316 11.4339 13.4316 11.3423C13.4316 11.2508 13.5057 11.1629 13.6375 11.0982C13.7693 11.0334 13.9481 10.9971 14.1345 10.9971C14.3209 10.9971 14.4997 11.0334 14.6315 11.0982C14.7633 11.1629 14.8374 11.2508 14.8374 11.3423Z" fill="url(#paint7_linear_788_81)"/>
</g>
<g filter="url(#filter5_f_788_81)">
<path fillRule="evenodd" clipRule="evenodd" d="M13.1758 11.5343C13.4237 11.7634 14.8039 11.881 15.0296 11.4685C14.5865 11.7831 13.6013 11.6726 13.1758 11.5343H13.1758Z" fill="url(#paint8_radial_788_81)"/>
</g>
<path opacity="0.286" d="M13.1816 12.299C13.1937 12.3227 13.2014 12.3484 13.2042 12.3746C13.2071 12.4007 13.205 12.4268 13.1982 12.4514C13.1914 12.476 13.18 12.4986 13.1646 12.5178C13.1491 12.5371 13.13 12.5527 13.1083 12.5636C13.0867 12.5746 13.0628 12.5809 13.0381 12.5819C13.0135 12.583 12.9885 12.5789 12.9647 12.5698C12.9408 12.5608 12.9186 12.547 12.8991 12.5293C12.8797 12.5115 12.8635 12.4901 12.8515 12.4664C12.8395 12.4426 12.8318 12.4169 12.8289 12.3908C12.8261 12.3646 12.8281 12.3385 12.8349 12.3139C12.8417 12.2894 12.8532 12.2668 12.8686 12.2475C12.884 12.2283 12.9031 12.2127 12.9248 12.2017C12.9465 12.1907 12.9704 12.1845 12.995 12.1834C13.0197 12.1824 13.0446 12.1865 13.0685 12.1955C13.0923 12.2046 13.1146 12.2183 13.134 12.2361C13.1534 12.2538 13.1696 12.2752 13.1816 12.299Z" fill="url(#paint9_linear_788_81)"/>
<g opacity="0.62" filter="url(#filter6_f_788_81)">
<path d="M13.2792 12.3434C13.2972 12.3789 13.3088 12.4172 13.3134 12.4562C13.3179 12.4951 13.3153 12.5339 13.3057 12.5704C13.296 12.6069 13.2796 12.6403 13.2572 12.6687C13.2349 12.6971 13.2071 12.72 13.1754 12.7361C13.1438 12.7521 13.1089 12.761 13.0728 12.7622C13.0366 12.7635 12.9999 12.757 12.9648 12.7432C12.9297 12.7294 12.8969 12.7086 12.8681 12.6819C12.8394 12.6552 12.8153 12.6232 12.7973 12.5877C12.7793 12.5522 12.7677 12.5138 12.7631 12.4749C12.7586 12.4359 12.7612 12.3971 12.7709 12.3606C12.7805 12.3242 12.7969 12.2908 12.8193 12.2623C12.8416 12.2339 12.8694 12.211 12.9011 12.195C12.9327 12.1789 12.9676 12.17 13.0038 12.1688C13.0399 12.1676 13.0766 12.174 13.1117 12.1878C13.1468 12.2016 13.1797 12.2224 13.2084 12.2491C13.2372 12.2758 13.2612 12.3078 13.2792 12.3434Z" fill="url(#paint10_linear_788_81)"/>
</g>
<g filter="url(#filter7_f_788_81)">
<path fillRule="evenodd" clipRule="evenodd" d="M12.8379 12.7622C13.0371 12.9181 13.7869 12.938 13.5022 12.4844C13.5764 12.8393 13.0643 12.8018 12.8379 12.7622Z" fill="url(#paint11_radial_788_81)"/>
</g>
<path fillRule="evenodd" clipRule="evenodd" d="M3.58203 10.4133C3.58203 10.3726 6.13675 11.192 6.57435 11.63C6.21462 11.2788 4.39358 10.4715 4.11637 10.4627C3.83917 10.4538 3.61491 10.4298 3.58203 10.4133Z" fill="url(#paint12_radial_788_81)"/>
<path opacity="0.286" d="M5.50012 12.1686C5.51006 12.1982 5.47125 12.2372 5.39223 12.277C5.31321 12.3168 5.20044 12.3542 5.07875 12.3809C4.95705 12.4076 4.83639 12.4215 4.74331 12.4195C4.65023 12.4175 4.59235 12.3997 4.58241 12.3701C4.57246 12.3405 4.61127 12.3015 4.6903 12.2617C4.76932 12.2219 4.88208 12.1845 5.00378 12.1578C5.12547 12.1311 5.24614 12.1172 5.33922 12.1192C5.4323 12.1213 5.49018 12.139 5.50012 12.1686Z" fill="url(#paint13_linear_788_81)"/>
<g opacity="0.62" filter="url(#filter8_f_788_81)">
<path d="M5.70312 12.2624C5.72453 12.3262 5.67997 12.4016 5.57925 12.4721C5.47852 12.5426 5.32988 12.6024 5.16602 12.6384C5.00216 12.6743 4.83651 12.6835 4.7055 12.6639C4.5745 12.6443 4.48887 12.5975 4.46745 12.5337C4.44604 12.47 4.4906 12.3946 4.59132 12.3241C4.69205 12.2536 4.84069 12.1938 5.00455 12.1578C5.16841 12.1218 5.33406 12.1126 5.46507 12.1323C5.59608 12.1519 5.6817 12.1987 5.70312 12.2624Z" fill="url(#paint14_linear_788_81)"/>
</g>
<g opacity="0.616" filter="url(#filter9_f_788_81)">
<path fillRule="evenodd" clipRule="evenodd" d="M4.40039 12.5838C4.40039 12.5838 4.5387 12.9554 4.91829 12.9743C5.30236 12.994 5.74056 12.5135 5.77739 12.3413C5.71162 12.4893 5.34333 12.9354 4.86903 12.9291C4.5994 12.9256 4.40046 12.5839 4.40046 12.5839L4.40039 12.5838Z" fill="url(#paint15_radial_788_81)"/>
</g>
<g filter="url(#filter10_f_788_81)">
<path d="M8.42212 1.17163C8.03745 1.17163 7.66035 1.31095 7.39401 1.583L2.27978 6.82128C1.81217 7.28889 1.69992 7.59484 1.72885 7.76806C1.74325 7.8546 1.78597 7.92985 1.87636 8.00869C1.96675 8.08754 2.10359 8.16465 2.26823 8.23381C2.59728 8.37189 3.04031 8.48314 3.47515 8.60259C3.90998 8.72204 4.33563 8.84782 4.65847 9.0527C4.70776 9.08473 4.75408 9.12422 4.78636 9.18059C4.81865 9.23696 4.83032 9.31171 4.8174 9.37467C4.79158 9.50045 4.7141 9.56675 4.63488 9.62673C4.47681 9.74717 4.25952 9.84688 4.04135 9.95267C3.82319 10.0585 3.60366 10.1664 3.49439 10.2551C3.43976 10.2995 3.41989 10.3393 3.42064 10.3366C3.42138 10.3339 3.40611 10.3027 3.43231 10.3289C3.50085 10.3993 3.71467 10.5199 3.98734 10.6276C4.26001 10.7354 4.59303 10.8443 4.92978 10.9536C5.26652 11.0629 5.60748 11.1709 5.8958 11.2834C6.18412 11.3959 6.41954 11.5007 6.575 11.6559C6.65236 11.7353 6.70699 11.8342 6.71854 11.9353C6.73009 12.0363 6.70277 12.1312 6.66428 12.2109C6.58729 12.3698 6.46313 12.4924 6.35013 12.6107C6.23714 12.7291 6.13458 12.8417 6.09807 12.9174C6.0797 12.9552 6.07696 12.9798 6.0787 12.995C6.08044 13.0103 6.08305 13.0256 6.11757 13.0608C6.11887 13.0621 6.12015 13.0634 6.12142 13.0647C6.26967 13.2214 6.59164 13.2435 6.95582 13.3285C7.13785 13.3711 7.32833 13.4356 7.49136 13.5769C7.65439 13.7182 7.77695 13.9332 7.8291 14.225C7.85095 14.3486 7.91639 14.4088 8.07371 14.4579C8.23103 14.5069 8.4703 14.5157 8.73341 14.4772C9.25939 14.4002 9.88321 14.1426 10.2428 13.8447C10.2651 13.8257 10.2589 13.8307 10.2661 13.8215C10.2419 13.8041 10.1852 13.7672 10.0916 13.7207C9.9808 13.6655 9.85006 13.6139 9.7501 13.4879C9.70006 13.4248 9.66567 13.3252 9.68032 13.2278C9.69497 13.1305 9.74824 13.0494 9.82001 12.9758C10.4093 12.38 10.9899 12.2377 11.4265 12.1221C11.6448 12.0644 11.8276 12.0116 11.9659 11.9242C12.1042 11.8368 12.2124 11.7176 12.3036 11.4859C12.3135 11.4608 12.3135 11.4536 12.2999 11.4238C12.2862 11.394 12.2497 11.3466 12.1912 11.2959C12.0745 11.1941 11.8808 11.0848 11.6869 10.9778C11.4929 10.8708 11.3069 10.7707 11.1708 10.6442C11.1028 10.5821 11.0315 10.5011 11.0234 10.3803C11.0154 10.2595 11.0946 10.1503 11.1865 10.0854C11.5274 9.84539 12.0427 9.66261 12.6027 9.46829C13.1627 9.27397 13.7649 9.07319 14.2558 8.84372C14.7466 8.61426 15.1072 8.34954 15.2218 8.08319C15.2792 7.94996 15.2897 7.81499 15.2296 7.64091C15.1695 7.46682 15.031 7.2535 14.7873 7.0084L9.48922 1.58672C9.48798 1.58548 9.48674 1.58424 9.4855 1.583C9.19271 1.30884 8.80531 1.17175 8.42237 1.17175L8.42212 1.17163ZM14.1262 11.1051C13.799 11.1169 13.4979 11.2665 13.3695 11.5009C13.406 11.5146 13.4388 11.5301 13.4974 11.5436C13.6682 11.5829 13.9065 11.6082 14.1416 11.6135C14.3766 11.6189 14.6114 11.599 14.7547 11.5593C14.8174 11.5419 14.8505 11.5243 14.8672 11.5127C14.8354 11.3774 14.7598 11.2815 14.6305 11.2101C14.4964 11.1361 14.313 11.0986 14.1262 11.1053V11.1051ZM5.37231 12.2304C5.11156 12.2124 4.78661 12.3157 4.6273 12.444C4.54759 12.508 4.51394 12.5674 4.51096 12.607C4.50798 12.6466 4.52052 12.6991 4.62743 12.7895C4.62744 12.7908 4.62744 12.7921 4.62743 12.7934C4.79543 12.9387 4.98528 12.9235 5.2017 12.8051C5.38299 12.7057 5.54403 12.5195 5.65181 12.3239C5.5685 12.2688 5.47213 12.2367 5.37243 12.2308L5.37231 12.2304ZM12.9466 12.308C12.8911 12.3788 12.8609 12.4443 12.8572 12.4905C12.8524 12.5541 12.8704 12.6032 12.9192 12.6495C13.0108 12.7364 13.2098 12.774 13.4122 12.665C13.4082 12.6414 13.4006 12.6059 13.3695 12.5602C13.3074 12.4691 13.1621 12.3707 12.9466 12.308Z" stroke="url(#paint16_radial_788_81)" stroke-width="0.242376"/>
</g>
<g opacity="0.325" filter="url(#filter11_f_788_81)">
<path fillRule="evenodd" clipRule="evenodd" d="M5.61838 9.37476C5.30976 9.46583 4.30921 9.84387 4.45121 10.1327C4.58727 10.4093 6.91348 10.5207 7.27061 11.3453C7.42631 11.7048 6.91336 11.9761 7.04324 12.3457C7.14328 12.6304 7.91706 13.3456 8.40661 13.6838C8.79059 13.949 9.29487 13.4702 9.08957 13.0733C8.7624 12.441 10.2078 11.6666 10.8631 11.315C11.2453 11.1098 10.0748 10.1023 10.0748 10.1023L5.61838 9.37476Z" fill="url(#paint17_linear_788_81)"/>
</g>
<path fillRule="evenodd" clipRule="evenodd" d="M5.73209 9.65382C6.00924 9.85746 6.5562 9.73453 6.88462 9.88254C7.67309 10.2377 8.64222 10.6331 8.46404 9.93283L8.26338 10.0995L8.25941 9.78184L7.79353 9.89558C7.79353 9.89558 7.4327 9.60589 7.26706 9.51041C7.23254 9.49054 7.05498 9.67096 7.05498 9.67096L7.02307 9.47924C6.79249 9.45466 6.56414 9.44386 6.36311 9.44547C5.88134 9.44919 5.55615 9.52469 5.73209 9.65382Z" fill="url(#paint18_linear_788_81)"/>
<g opacity="0.478" filter="url(#filter12_f_788_81)">
<path fillRule="evenodd" clipRule="evenodd" d="M10.9076 10.2993C10.8009 10.6921 12.219 11.2258 12.1127 11.4968C11.8787 12.0935 10.5984 11.6871 9.6192 12.9368C9.47896 13.1159 9.81626 13.7553 9.77078 13.6796C9.72531 13.6038 9.3788 13.0755 9.46762 12.8155C9.74617 12.0004 12.4394 11.6965 11.946 11.3073C11.6622 11.0836 10.6421 10.4653 10.9076 10.2993Z" fill="url(#paint19_radial_788_81)"/>
</g>
<path opacity="0.586" d="M14.0999 11.1066C14.0999 11.1422 14.0304 11.1711 13.9447 11.1711C13.859 11.1711 13.7895 11.1423 13.7895 11.1066C13.7895 11.0708 13.859 11.042 13.9447 11.042C14.0304 11.042 14.0999 11.0708 14.0999 11.1066ZM13.0616 12.2965C13.0616 12.3321 13.0176 12.361 12.9632 12.361C12.9088 12.361 12.8647 12.3322 12.8647 12.2965C12.8647 12.2607 12.9088 12.2319 12.9632 12.2319C13.0176 12.2319 13.0616 12.2607 13.0616 12.2965ZM5.20218 12.2396C5.20218 12.2752 5.12395 12.3042 5.02785 12.3042C4.93174 12.3042 4.85352 12.2754 4.85352 12.2396C4.85352 12.2038 4.93174 12.175 5.02785 12.175C5.12395 12.175 5.20218 12.2038 5.20218 12.2396Z" fill="white"/>
<path opacity="0.25" d="M5.10298 9.40503C4.21481 9.95435 2.83394 10.1543 4.34506 10.5192C4.16502 10.1184 4.73495 10.1626 5.10298 9.40503Z" fill="url(#paint20_linear_788_81)"/>
<g opacity="0.363" filter="url(#filter13_f_788_81)">
<path d="M8.25564 14.4072C8.25564 14.4072 9.62545 14.2782 9.94231 13.8829C10.1277 13.6517 9.20563 13.3818 9.40462 13.1553C10.1534 12.3032 10.7828 12.3388 11.651 11.9818C12.5193 11.6249 12.1989 11.4501 11.9181 11.2934C11.4371 11.0251 10.3667 10.7391 10.7208 10.1023C11.0771 9.46137 14.1976 8.57129 14.1976 8.57129C15.1432 8.24824 15.0246 7.66399 14.5614 7.17675L11.7723 4.40283C11.7723 4.40283 11.9107 7.03366 11.3479 8.16202C10.6524 9.55656 6.94939 11.1125 8.49817 11.2846C9.04386 11.3452 9.30579 11.5313 9.52892 11.9515C9.98827 12.8167 8.25564 14.4071 8.25564 14.4071V14.4072Z" fill="url(#paint21_linear_788_81)"/>
</g>
</g>
<defs>
<filter id="filter0_f_788_81" x="0.741374" y="0.310466" width="15.5094" height="15.2926" filterUnits="userSpaceOnUse" color-interpolation-filters="sRGB">
<feFlood flood-opacity="0" result="BackgroundImageFix"/>
<feBlend mode="normal" in="SourceGraphic" in2="BackgroundImageFix" result="shape"/>
<feGaussianBlur stdDeviation="0.399821" result="effect1_foregroundBlur_788_81"/>
</filter>
<filter id="filter1_f_788_81" x="-1.92576" y="-2.23533" width="20.8437" height="20.6269" filterUnits="userSpaceOnUse" color-interpolation-filters="sRGB">
<feFlood flood-opacity="0" result="BackgroundImageFix"/>
<feBlend mode="normal" in="SourceGraphic" in2="BackgroundImageFix" result="shape"/>
<feGaussianBlur stdDeviation="1.73339" result="effect1_foregroundBlur_788_81"/>
</filter>
<filter id="filter2_f_788_81" x="5.10852" y="10.5341" width="6.01733" height="4.76586" filterUnits="userSpaceOnUse" color-interpolation-filters="sRGB">
<feFlood flood-opacity="0" result="BackgroundImageFix"/>
<feBlend mode="normal" in="SourceGraphic" in2="BackgroundImageFix" result="shape"/>
<feGaussianBlur stdDeviation="0.515074" result="effect1_foregroundBlur_788_81"/>
</filter>
<filter id="filter3_f_788_81" x="9.55259" y="7.07847" width="6.73662" height="4.13799" filterUnits="userSpaceOnUse" color-interpolation-filters="sRGB">
<feFlood flood-opacity="0" result="BackgroundImageFix"/>
<feBlend mode="normal" in="SourceGraphic" in2="BackgroundImageFix" result="shape"/>
<feGaussianBlur stdDeviation="0.55769" result="effect1_foregroundBlur_788_81"/>
</filter>
<filter id="filter4_f_788_81" x="12.9254" y="10.4909" width="2.41869" height="1.70287" filterUnits="userSpaceOnUse" color-interpolation-filters="sRGB">
<feFlood flood-opacity="0" result="BackgroundImageFix"/>
<feBlend mode="normal" in="SourceGraphic" in2="BackgroundImageFix" result="shape"/>
<feGaussianBlur stdDeviation="0.25311" result="effect1_foregroundBlur_788_81"/>
</filter>
<filter id="filter5_f_788_81" x="12.7438" y="11.0366" width="2.71741" height="1.13782" filterUnits="userSpaceOnUse" color-interpolation-filters="sRGB">
<feFlood flood-opacity="0" result="BackgroundImageFix"/>
<feBlend mode="normal" in="SourceGraphic" in2="BackgroundImageFix" result="shape"/>
<feGaussianBlur stdDeviation="0.215973" result="effect1_foregroundBlur_788_81"/>
</filter>
<filter id="filter6_f_788_81" x="12.4289" y="11.8358" width="1.22042" height="1.25948" filterUnits="userSpaceOnUse" color-interpolation-filters="sRGB">
<feFlood flood-opacity="0" result="BackgroundImageFix"/>
<feBlend mode="normal" in="SourceGraphic" in2="BackgroundImageFix" result="shape"/>
<feGaussianBlur stdDeviation="0.166433" result="effect1_foregroundBlur_788_81"/>
</filter>
<filter id="filter7_f_788_81" x="12.5539" y="12.2003" width="1.29657" height="0.946228" filterUnits="userSpaceOnUse" color-interpolation-filters="sRGB">
<feFlood flood-opacity="0" result="BackgroundImageFix"/>
<feBlend mode="normal" in="SourceGraphic" in2="BackgroundImageFix" result="shape"/>
<feGaussianBlur stdDeviation="0.142014" result="effect1_foregroundBlur_788_81"/>
</filter>
<filter id="filter8_f_788_81" x="4.05141" y="11.7106" width="2.06905" height="1.37496" filterUnits="userSpaceOnUse" color-interpolation-filters="sRGB">
<feFlood flood-opacity="0" result="BackgroundImageFix"/>
<feBlend mode="normal" in="SourceGraphic" in2="BackgroundImageFix" result="shape"/>
<feGaussianBlur stdDeviation="0.205739" result="effect1_foregroundBlur_788_81"/>
</filter>
<filter id="filter9_f_788_81" x="4.05052" y="11.9914" width="2.0767" height="1.33329" filterUnits="userSpaceOnUse" color-interpolation-filters="sRGB">
<feFlood flood-opacity="0" result="BackgroundImageFix"/>
<feBlend mode="normal" in="SourceGraphic" in2="BackgroundImageFix" result="shape"/>
<feGaussianBlur stdDeviation="0.174936" result="effect1_foregroundBlur_788_81"/>
</filter>
<filter id="filter10_f_788_81" x="1.27969" y="0.726707" width="14.4348" height="14.2194" filterUnits="userSpaceOnUse" color-interpolation-filters="sRGB">
<feFlood flood-opacity="0" result="BackgroundImageFix"/>
<feBlend mode="normal" in="SourceGraphic" in2="BackgroundImageFix" result="shape"/>
<feGaussianBlur stdDeviation="0.161915" result="effect1_foregroundBlur_788_81"/>
</filter>
<filter id="filter11_f_788_81" x="2.6491" y="7.58635" width="10.0788" height="7.96231" filterUnits="userSpaceOnUse" color-interpolation-filters="sRGB">
<feFlood flood-opacity="0" result="BackgroundImageFix"/>
<feBlend mode="normal" in="SourceGraphic" in2="BackgroundImageFix" result="shape"/>
<feGaussianBlur stdDeviation="0.894202" result="effect1_foregroundBlur_788_81"/>
</filter>
<filter id="filter12_f_788_81" x="8.85117" y="9.69736" width="3.86993" height="4.59039" filterUnits="userSpaceOnUse" color-interpolation-filters="sRGB">
<feFlood flood-opacity="0" result="BackgroundImageFix"/>
<feBlend mode="normal" in="SourceGraphic" in2="BackgroundImageFix" result="shape"/>
<feGaussianBlur stdDeviation="0.300978" result="effect1_foregroundBlur_788_81"/>
</filter>
<filter id="filter13_f_788_81" x="6.77944" y="3.05922" width="9.47628" height="12.6916" filterUnits="userSpaceOnUse" color-interpolation-filters="sRGB">
<feFlood flood-opacity="0" result="BackgroundImageFix"/>
<feBlend mode="normal" in="SourceGraphic" in2="BackgroundImageFix" result="shape"/>
<feGaussianBlur stdDeviation="0.671804" result="effect1_foregroundBlur_788_81"/>
</filter>
<linearGradient id="paint0_linear_788_81" x1="240.057" y1="255.163" x2="423.269" y2="437.491" gradientUnits="userSpaceOnUse">
<stop stop-color="white"/>
<stop offset="1" stop-color="white" stop-opacity="0"/>
</linearGradient>
<linearGradient id="paint1_linear_788_81" x1="404.99" y1="79.0616" x2="506.125" y2="252.97" gradientUnits="userSpaceOnUse">
<stop stop-color="white"/>
<stop offset="1" stop-color="white" stop-opacity="0"/>
</linearGradient>
<radialGradient id="paint2_radial_788_81" cx="0" cy="0" r="1" gradientUnits="userSpaceOnUse" gradientTransform="translate(727.962 724.188) scale(190.154 87.0074)">
<stop stop-color="white"/>
<stop offset="1" stop-color="white" stop-opacity="0"/>
</radialGradient>
<radialGradient id="paint3_radial_788_81" cx="0" cy="0" r="1" gradientUnits="userSpaceOnUse" gradientTransform="translate(1054.59 924.08) scale(242.621 111.014)">
<stop stop-color="white"/>
<stop offset="1" stop-color="white" stop-opacity="0"/>
</radialGradient>
<radialGradient id="paint4_radial_788_81" cx="0" cy="0" r="1" gradientUnits="userSpaceOnUse" gradientTransform="translate(957.83 144.91) scale(154.294 27.6543)">
<stop stop-color="white"/>
<stop offset="1" stop-color="white" stop-opacity="0"/>
</radialGradient>
<radialGradient id="paint5_radial_788_81" cx="0" cy="0" r="1" gradientUnits="userSpaceOnUse" gradientTransform="translate(990.489 155.761) scale(154.294 27.6543)">
<stop stop-color="white"/>
<stop offset="1" stop-color="white" stop-opacity="0"/>
</radialGradient>
<linearGradient id="paint6_linear_788_81" x1="255.434" y1="73.5755" x2="255.446" y2="75.5999" gradientUnits="userSpaceOnUse">
<stop stop-color="white"/>
<stop offset="1" stop-color="white" stop-opacity="0"/>
</linearGradient>
<linearGradient id="paint7_linear_788_81" x1="338.685" y1="146.08" x2="338.685" y2="149.153" gradientUnits="userSpaceOnUse">
<stop stop-color="white"/>
<stop offset="1" stop-color="white" stop-opacity="0"/>
</linearGradient>
<radialGradient id="paint8_radial_788_81" cx="0" cy="0" r="1" gradientUnits="userSpaceOnUse" gradientTransform="translate(436.247 19.8735) scale(26.1274 0.570295)">
<stop stop-color="white"/>
<stop offset="1" stop-color="white" stop-opacity="0"/>
</radialGradient>
<linearGradient id="paint9_linear_788_81" x1="125.045" y1="44.1617" x2="126.253" y2="46.4209" gradientUnits="userSpaceOnUse">
<stop stop-color="white"/>
<stop offset="1" stop-color="white" stop-opacity="0"/>
</linearGradient>
<linearGradient id="paint10_linear_788_81" x1="177.821" y1="61.636" x2="179.042" y2="64.0438" gradientUnits="userSpaceOnUse">
<stop stop-color="white"/>
<stop offset="1" stop-color="white" stop-opacity="0"/>
</linearGradient>
<radialGradient id="paint11_radial_788_81" cx="0" cy="0" r="1" gradientUnits="userSpaceOnUse" gradientTransform="translate(164.139 -52.5416) rotate(-26.886) scale(10.1576 0.689003)">
<stop stop-color="white"/>
<stop offset="1" stop-color="white" stop-opacity="0"/>
</radialGradient>
<radialGradient id="paint12_radial_788_81" cx="0" cy="0" r="1" gradientUnits="userSpaceOnUse" gradientTransform="translate(272.517 103.933) scale(68.0753 11.2813)">
<stop stop-color="white" stop-opacity="0.33"/>
<stop offset="1" stop-color="white" stop-opacity="0"/>
</radialGradient>
<linearGradient id="paint13_linear_788_81" x1="231.743" y1="9.13804" x2="232.067" y2="10.5805" gradientUnits="userSpaceOnUse">
<stop stop-color="white"/>
<stop offset="1" stop-color="white" stop-opacity="0"/>
</linearGradient>
<linearGradient id="paint14_linear_788_81" x1="321.877" y1="43.5294" x2="322.358" y2="45.7201" gradientUnits="userSpaceOnUse">
<stop stop-color="white"/>
<stop offset="1" stop-color="white" stop-opacity="0"/>
</linearGradient>
<radialGradient id="paint15_radial_788_81" cx="0" cy="0" r="1" gradientUnits="userSpaceOnUse" gradientTransform="translate(169.457 36.7674) rotate(-15.4869) scale(17.7274 3.05185)">
<stop stop-color="white"/>
<stop offset="1" stop-color="white" stop-opacity="0"/>
</radialGradient>
<radialGradient id="paint16_radial_788_81" cx="0" cy="0" r="1" gradientUnits="userSpaceOnUse" gradientTransform="translate(1592.03 479.872) scale(1277.94 1237.73)">
<stop stop-color="white"/>
<stop offset="1" stop-color="white" stop-opacity="0"/>
</radialGradient>
<linearGradient id="paint17_linear_788_81" x1="625.406" y1="922.269" x2="975.15" y2="1059.38" gradientUnits="userSpaceOnUse">
<stop stop-color="white"/>
<stop offset="1" stop-color="white" stop-opacity="0"/>
</linearGradient>
<linearGradient id="paint18_linear_788_81" x1="162.129" y1="76.5551" x2="161.113" y2="84.0064" gradientUnits="userSpaceOnUse">
<stop stop-color="#EEEEEC"/>
<stop offset="1" stop-color="#EEEEEC" stop-opacity="0"/>
</linearGradient>
<radialGradient id="paint19_radial_788_81" cx="0" cy="0" r="1" gradientUnits="userSpaceOnUse" gradientTransform="translate(661.785 1257.04) scale(80.9264 130.673)">
<stop stop-color="white"/>
<stop offset="1" stop-color="white" stop-opacity="0"/>
</radialGradient>
<linearGradient id="paint20_linear_788_81" x1="47.0688" y1="97.6621" x2="52.1642" y2="102.863" gradientUnits="userSpaceOnUse">
<stop stop-color="white"/>
<stop offset="1" stop-color="white" stop-opacity="0"/>
</linearGradient>
<linearGradient id="paint21_linear_788_81" x1="351.956" y1="1346.46" x2="1.954" y2="706.962" gradientUnits="userSpaceOnUse">
<stop stop-color="#729FCF"/>
<stop offset="1" stop-color="#729FCF" stop-opacity="0"/>
</linearGradient>
<clipPath id="clip0_788_81">
<rect width="16" height="16" fill="white" transform="translate(0.5)"/>
</clipPath>
</defs>
</svg>
