<svg width="172" height="201" viewBox="0 0 172 201" fill="none" xmlns="http://www.w3.org/2000/svg">
<path d="M14.2898 200H157.459C157.459 200 160.501 179.058 152.628 173.783C144.754 168.506 110.102 174.288 103.933 174.036C103.933 174.036 89.1873 192.182 69.5293 174.036C69.5293 174.036 28.4225 171.111 23.1398 172.824C17.8571 174.54 13.211 173.175 14.2898 200Z" fill="#F08845"/>
<path d="M70.6238 152.499V171.473C70.6238 172.987 69.3275 174.172 67.8189 174.036C57.7031 173.122 23.4126 170.355 18.1551 174.298C11.9752 178.933 14.2929 199.999 14.2929 199.999" stroke="#201708" stroke-width="1.1456" stroke-miterlimit="10" stroke-linecap="round" stroke-linejoin="round"/>
<path d="M101.129 153.055V171.472C101.129 172.986 102.427 174.171 103.934 174.034C114.05 173.121 148.34 170.354 153.598 174.297C159.778 178.932 157.46 199.998 157.46 199.998" stroke="#201708" stroke-width="1.1456" stroke-miterlimit="10" stroke-linecap="round" stroke-linejoin="round"/>
<path d="M71.5269 103.606C71.5269 107.312 69.7091 110.315 67.4651 110.315C65.2211 110.315 63.4033 107.31 63.4033 103.606C63.4033 99.9007 65.2211 96.8979 67.4651 96.8979C69.7091 96.8979 71.5269 99.9007 71.5269 103.606Z" fill="#201708"/>
<path d="M54.4369 99.216C55.9742 97.943 57.5763 97.0422 59.369 96.3338C61.1418 95.6307 63.0513 95.1956 65.0148 95.1147C66.9819 95.0698 68.9975 95.4725 70.7577 96.3446C72.5738 97.1537 73.9043 98.6551 74.9724 100.124C75.1 100.298 75.0604 100.543 74.886 100.671C74.753 100.768 74.5786 100.768 74.4473 100.685L74.4024 100.656C72.9154 99.7123 71.5039 98.8277 69.927 98.4824C68.3807 98.1066 66.8164 98.0078 65.2467 98.2217C63.6788 98.4429 62.1289 98.8996 60.6042 99.484C59.1082 100.081 57.5367 100.804 56.172 101.564L56.0803 101.616C55.3755 102.008 54.4872 101.757 54.0935 101.052C53.7446 100.426 53.9047 99.6566 54.4369 99.216Z" fill="#201708"/>
<path d="M100.23 103.607C100.23 107.313 102.048 110.315 104.292 110.315C106.534 110.315 108.354 107.311 108.354 103.607C108.354 99.9012 106.536 96.8984 104.292 96.8984C102.048 96.8984 100.23 99.9012 100.23 103.607Z" fill="#201708"/>
<path d="M115.586 101.565C114.223 100.804 112.65 100.081 111.154 99.4843C109.631 98.9017 108.081 98.4432 106.511 98.2221C104.944 98.0081 103.379 98.107 101.831 98.4828C100.254 98.8262 98.8411 99.7126 97.3559 100.657L97.3127 100.684C97.1293 100.799 96.8884 100.745 96.7715 100.563C96.6834 100.425 96.6942 100.248 96.7859 100.123C97.8539 98.6518 99.1845 97.1522 101 96.3431C102.759 95.4711 104.775 95.0683 106.743 95.1132C108.707 95.1942 110.616 95.6293 112.389 96.3323C114.18 97.0407 115.784 97.9416 117.321 99.2146C117.942 99.7288 118.03 100.649 117.514 101.27C117.057 101.82 116.282 101.951 115.678 101.615L115.586 101.565Z" fill="#201708"/>
<path d="M84.127 126.579C87.3401 125.741 90.359 124.955 93.1424 123.684C94.5269 123.048 95.8017 122.253 97.0081 121.329C98.2056 120.376 99.1802 119.198 100.227 117.871C99.9857 119.511 99.2809 121.16 98.1373 122.472C97.0027 123.788 95.5499 124.804 94.0054 125.552C92.4321 126.241 90.7815 126.694 89.1093 126.867C87.4443 127.043 85.7524 127.014 84.127 126.579Z" fill="#201708"/>
<path d="M83.255 99.3691C83.255 99.3691 80.851 115.505 83.255 116.021C85.6589 116.535 89.0914 116.021 89.0914 116.021" stroke="#201708" stroke-width="1.1456" stroke-miterlimit="10" stroke-linecap="round" stroke-linejoin="round"/>
<path d="M139.011 87.9719C139.011 121.414 115.222 155.219 85.8783 155.219C56.5342 155.219 32.7461 121.412 32.7461 87.9719C32.7461 54.5318 56.5342 27.4209 85.8783 27.4209C115.222 27.4209 139.011 54.53 139.011 87.9719Z" stroke="#201708" stroke-width="1.0933" stroke-miterlimit="10" stroke-linecap="round" stroke-linejoin="round"/>
<path d="M33.1297 95.3785C33.1297 95.3785 30.1468 89.267 24.4811 91.3186C18.8173 93.3701 21.5755 116.247 36.5029 111.331" stroke="#201708" stroke-width="1.0933" stroke-miterlimit="10" stroke-linecap="round" stroke-linejoin="round"/>
<path d="M138.327 95.3785C138.327 95.3785 141.31 89.267 146.976 91.3186C152.64 93.3701 149.881 116.247 134.954 111.331" stroke="#201708" stroke-width="1.0933" stroke-miterlimit="10" stroke-linecap="round" stroke-linejoin="round"/>
<path d="M139.011 94.2804C139.335 112.083 112.952 82.2047 112.952 82.2047C82.0546 95.9382 71.5252 67.7862 71.5252 67.7862C71.5252 67.7862 59.0486 99.3707 33.1298 95.3808C33.1298 95.3808 27.047 31.9458 85.8772 27.4219C85.8772 27.4219 137.758 25.471 139.011 94.2804Z" fill="#201708"/>
<path d="M69.1015 156.73C68.0047 159.732 64.7933 161.421 61.6899 162.183C53.552 164.183 44.7865 161.602 37.8748 156.861C35.2569 155.065 32.7827 152.884 31.4072 150.023C29.0464 145.114 30.3464 139.314 31.6895 134.035C31.6895 134.035 1.3745 125.803 4.46354 93.532C4.46354 93.532 -12.0155 51.6484 19.9124 42.0343C19.9124 42.0343 26.3044 -4.31214 64.9929 11.8235C71.4893 8.00446 77.7374 2.95916 85.0537 1.14673C92.3681 -0.665699 100.413 -0.520055 107.094 2.96635C113.776 6.45276 118.733 13.6881 118.211 21.2075C123.879 19.7151 130.305 18.8719 136.089 19.8176C139.439 20.366 142.773 21.3442 145.617 23.1979C149.843 25.9508 152.741 30.5843 153.588 35.5577C154.435 40.5293 153.275 45.776 150.601 50.0535C155.291 51.7563 158.473 55.4603 161.217 59.6263C163.772 63.5047 165.703 67.7859 166.98 72.2504C168.132 76.2816 168.749 80.5699 167.864 84.6677C166.98 88.7654 164.401 92.651 160.559 94.3268C166.467 97.5435 169.61 104.399 169.981 111.119C170.153 114.242 169.831 117.451 168.533 120.296C166.759 124.189 163.215 127.139 159.198 128.615C155.181 130.09 150.734 130.167 146.547 129.29C146.203 132.154 146.311 134.901 146.16 137.784C145.961 141.576 144.285 145.312 141.431 147.817C138.578 150.321 134.552 151.505 130.835 150.73C129.534 153.941 126.01 156.095 123.266 158.211C121.559 159.527 119.785 160.827 117.735 161.487C115.971 162.056 114.092 162.126 112.24 162.189C108.045 162.334 101.265 160.484 101.132 160.567V152.111C101.132 152.111 116.629 146.213 126.975 129.058C126.975 129.058 131.922 121.661 135.225 111.417C135.225 111.417 143.665 114.069 147.061 107.321C150.458 100.573 150.855 94.458 147.352 91.5074C143.85 88.5569 137.927 95.1665 137.927 95.1665C137.927 95.1665 129.602 45.6429 109.518 35.8598C109.518 35.8598 83.0831 22.4697 57.8493 38.6054C32.6155 54.741 33.457 85.3006 32.9499 93.3666C32.9499 93.3666 26.6442 88.8949 23.0211 92.5449C19.3981 96.195 22.0232 114.627 36.5029 111.333C36.5029 111.333 43.2923 131.158 52.6277 139.262C61.9632 147.366 65.2338 151.066 70.6226 152.499V156.705L69.1015 156.73Z" fill="#201708"/>
<path d="M149.706 50.6168C154.87 50.3812 160.291 52.2206 164.2 55.9552C168.113 59.6915 170.33 64.9454 171.083 70.1651C171.434 72.7579 171.77 75.365 171.743 78.0208C171.718 80.6549 171.513 83.3771 170.502 85.9375C169.546 88.5159 167.579 90.697 165.263 92.0203C162.902 93.2826 160.415 94.0287 157.925 94.7336C160.248 93.5972 162.681 92.6407 164.72 91.1699C166.757 89.7152 168.253 87.7194 168.988 85.3963C169.718 83.0697 169.882 80.547 169.792 78.0405C169.763 75.5287 169.422 72.9988 169.048 70.4852C168.361 65.5136 166.421 60.7487 163.067 57.0915C159.671 53.4882 154.839 51.1885 149.706 50.6168Z" fill="#201708"/>
<path d="M21.7522 42.9807C19.5316 39.4098 18.246 35.1251 18.4438 30.7486C18.5193 28.564 19.0407 26.3776 19.9272 24.3476C20.8298 22.3194 22.1478 20.4962 23.6761 18.9229C26.7903 15.8051 30.6795 13.6672 34.7035 12.2827C38.7329 10.8605 42.9278 10.1107 47.1208 9.76367C43.0662 10.8982 39.0817 12.1587 35.2914 13.7787C34.3457 14.1851 33.4377 14.6669 32.5045 15.0895C31.6253 15.6073 30.6921 16.0407 29.8614 16.6214C28.1137 17.6607 26.5494 18.9499 25.1469 20.3613C22.297 23.1573 20.4809 26.8775 20.0386 30.8763C19.5981 34.8734 20.249 39.0646 21.7522 42.9807Z" fill="#201708"/>
<path d="M7.72491 91.8418C6.23253 94.2512 5.03142 96.8206 4.28163 99.5069C3.47072 102.168 3.0554 104.941 3.20104 107.677C3.424 113.143 5.6338 118.401 9.2155 122.536L10.555 124.081C11.001 124.597 11.5565 124.996 12.051 125.46C13.0184 126.427 14.1979 127.109 15.3108 127.887C17.6483 129.263 20.1908 130.307 22.8807 130.908C25.5687 131.494 28.3575 131.694 31.1462 131.55C33.9422 131.46 36.7382 131.023 39.4802 130.293C34.2551 132.535 28.3521 133.339 22.584 132.463C19.6819 132.06 16.9111 130.951 14.3183 129.565C13.0795 128.766 11.8046 128.008 10.7366 126.983C10.1936 126.486 9.58589 126.051 9.09862 125.503L7.63503 123.854C3.84475 119.422 1.46051 113.578 1.62413 107.688C1.71223 101.805 4.06948 96.1733 7.72491 91.8418Z" fill="#201708"/>
</svg>
