<svg width="16" height="16" viewBox="0 0 16 16" fill="none" xmlns="http://www.w3.org/2000/svg">
<path d="M13.1552 5.61398C12.9892 5.55685 12.8172 5.50279 12.6402 5.45167C12.6693 5.33288 12.696 5.21563 12.7197 5.10037C13.1096 3.20781 12.8547 1.68314 11.9842 1.18116C11.1495 0.699819 9.78446 1.20169 8.40581 2.40149C8.27324 2.51686 8.14029 2.63901 8.00741 2.76702C7.91886 2.68233 7.83046 2.60047 7.74229 2.52218C6.29742 1.23928 4.84917 0.698651 3.97954 1.20209C3.14565 1.68482 2.8987 3.11815 3.24966 4.91175C3.28355 5.08499 3.32316 5.26191 3.36796 5.44179C3.16299 5.49997 2.96512 5.562 2.77578 5.62799C1.08183 6.21857 0 7.14417 0 8.10425C0 9.09583 1.16135 10.0904 2.92573 10.6935C3.06497 10.741 3.20944 10.786 3.35834 10.8288C3.31001 11.0233 3.26797 11.214 3.23268 11.3999C2.89805 13.1624 3.15938 14.5618 3.99104 15.0415C4.85008 15.5369 6.29178 15.0277 7.69564 13.8006C7.80659 13.7036 7.91795 13.6007 8.0295 13.4929C8.1741 13.6321 8.31846 13.7639 8.46206 13.8875C9.82185 15.0576 11.1649 15.5302 11.9958 15.0491C12.854 14.5523 13.1329 13.049 12.7708 11.2199C12.7431 11.0802 12.7109 10.9375 12.6748 10.7922C12.776 10.7623 12.8754 10.7314 12.9723 10.6993C14.8066 10.0915 16 9.10907 16 8.10425C16 7.14069 14.8833 6.20886 13.1552 5.61398ZM12.7574 10.0505C12.6699 10.0794 12.5801 10.1074 12.4886 10.1346C12.2862 9.49352 12.0129 8.81186 11.6784 8.10758C11.9976 7.42008 12.2603 6.74713 12.4571 6.11024C12.6208 6.1576 12.7796 6.20755 12.9327 6.26027C14.4133 6.76997 15.3165 7.52358 15.3165 8.10425C15.3165 8.72277 14.3411 9.5257 12.7574 10.0505ZM12.1002 11.3526C12.2603 12.1614 12.2832 12.8927 12.1772 13.4643C12.0819 13.978 11.8902 14.3204 11.6533 14.4576C11.149 14.7495 10.0707 14.3701 8.90782 13.3694C8.77451 13.2546 8.64023 13.1322 8.50552 13.0025C8.95635 12.5094 9.40693 11.9362 9.84669 11.2996C10.6202 11.231 11.3509 11.1188 12.0136 10.9656C12.0463 11.0972 12.0753 11.2264 12.1002 11.3526ZM5.45476 14.4072C4.96212 14.5812 4.56975 14.5861 4.33257 14.4494C3.82788 14.1583 3.61807 13.0346 3.90427 11.5274C3.93705 11.3548 3.97606 11.1774 4.02103 10.9962C4.67647 11.1411 5.40187 11.2454 6.17721 11.3083C6.61993 11.9312 7.08352 12.5038 7.5507 13.0052C7.44863 13.1037 7.34696 13.1975 7.24586 13.2859C6.62508 13.8285 6.003 14.2135 5.45476 14.4072ZM3.14679 10.0467C2.36661 9.78003 1.72232 9.43346 1.28068 9.05527C0.883842 8.71543 0.683486 8.37803 0.683486 8.10425C0.683486 7.52164 1.55209 6.77852 3.00077 6.27343C3.17655 6.21214 3.36056 6.15438 3.55151 6.10013C3.75173 6.7514 4.01437 7.43233 4.33132 8.12088C4.01027 8.81966 3.7439 9.51144 3.54172 10.1703C3.40558 10.1312 3.27369 10.09 3.14679 10.0467ZM3.92044 4.78049C3.61975 3.24378 3.81945 2.08453 4.32198 1.79364C4.85726 1.48375 6.0409 1.92559 7.28843 3.03331C7.36818 3.10411 7.44823 3.17822 7.52852 3.25488C7.06364 3.75405 6.60429 4.32233 6.1655 4.9416C5.41301 5.01135 4.6927 5.12338 4.03043 5.27342C3.98879 5.10593 3.95191 4.94137 3.92044 4.78049ZM10.8221 6.48469C10.6638 6.21123 10.5013 5.94423 10.3356 5.68452C10.8461 5.74906 11.3352 5.83472 11.7945 5.93956C11.6566 6.38151 11.4847 6.84359 11.2824 7.3173C11.1373 7.04175 10.9838 6.76393 10.8221 6.48469ZM8.00763 3.74337C8.3229 4.08493 8.63863 4.46627 8.94917 4.88002C8.63624 4.86524 8.31943 4.85755 8 4.85755C7.68359 4.85755 7.36912 4.86507 7.05812 4.8796C7.36897 4.46969 7.68743 4.08886 8.00763 3.74337ZM5.17512 6.48942C5.01697 6.76365 4.86631 7.03996 4.72346 7.31678C4.52441 6.84473 4.35413 6.38054 4.21504 5.93232C4.67154 5.83017 5.15834 5.74664 5.6656 5.68333C5.49757 5.94543 5.33369 6.21445 5.17512 6.48942ZM5.68021 10.5739C5.15612 10.5155 4.662 10.4362 4.20561 10.3369C4.34693 9.88068 4.52097 9.40657 4.72423 8.92435C4.86745 9.20098 5.01871 9.4774 5.17782 9.75223C5.3399 10.0322 5.50785 10.3065 5.68021 10.5739ZM8.02654 12.5133C7.70259 12.1638 7.37945 11.7771 7.06387 11.3613C7.37023 11.3733 7.68256 11.3794 8 11.3794C8.32612 11.3794 8.64851 11.3721 8.96583 11.358C8.65427 11.7813 8.33968 12.1686 8.02654 12.5133ZM11.2889 8.89978C11.5028 9.38721 11.6831 9.85883 11.8262 10.3073C11.3623 10.4131 10.8614 10.4983 10.3337 10.5617C10.4998 10.2985 10.6637 10.0269 10.8249 9.74753C10.9878 9.4649 11.1426 9.18184 11.2889 8.89978ZM10.2328 9.40606C9.98268 9.83972 9.7259 10.2537 9.46523 10.6445C8.99044 10.6784 8.49993 10.6959 8 10.6959C7.50209 10.6959 7.01776 10.6804 6.55138 10.6502C6.28019 10.2543 6.01784 9.83907 5.76932 9.40979C5.52146 8.98168 5.2934 8.54996 5.08669 8.12065C5.29334 7.69035 5.52086 7.25814 5.7673 6.8308L5.76724 6.83089C6.01433 6.40241 6.27438 5.98923 6.54306 5.59581C7.0189 5.55984 7.50684 5.54107 7.99997 5.54107C8.49532 5.54107 8.98392 5.55998 9.45962 5.59626C9.72419 5.98681 9.98248 6.39865 10.2305 6.82719C10.4814 7.26054 10.7119 7.68987 10.9203 8.11094C10.7125 8.53925 10.4826 8.97291 10.2328 9.40606ZM11.6428 1.77331C12.1786 2.08228 12.3869 3.32839 12.0503 4.96242C12.0288 5.06668 12.0047 5.17288 11.9784 5.28051C11.3146 5.12734 10.5938 5.01337 9.83908 4.94257C9.39944 4.3165 8.94385 3.74733 8.48655 3.25457C8.6095 3.13629 8.73227 3.02351 8.85454 2.91708C10.0358 1.88911 11.1398 1.48324 11.6428 1.77331ZM8 6.6755C8.78906 6.6755 9.42875 7.31516 9.42875 8.10425C9.42875 8.89331 8.78906 9.533 8 9.533C7.21094 9.533 6.57125 8.89331 6.57125 8.10425C6.57125 7.31516 7.21094 6.6755 8 6.6755Z" fill="#257BC2"/>
</svg>
