<svg width="16" height="16" viewBox="0 0 16 16" fill="none" xmlns="http://www.w3.org/2000/svg">
<path d="M12.6667 5.33325H14C14.3682 5.33325 14.6667 5.63173 14.6667 5.99992V13.9999C14.6667 14.3681 14.3682 14.6666 14 14.6666H8.66667C8.29847 14.6666 8 14.3681 8 13.9999V13.3333H2.66667C2.29848 13.3333 2 13.0348 2 12.6666V1.99992C2 1.63173 2.29848 1.33325 2.66667 1.33325H12C12.3682 1.33325 12.6667 1.63173 12.6667 1.99992V5.33325ZM11.3333 5.33325V2.66659H3.33333V11.9999H8V5.99992C8 5.63173 8.29847 5.33325 8.66667 5.33325H11.3333ZM9.33333 6.66658V13.3333H13.3333V6.66658H9.33333Z" fill="#201708"/>
</svg>
