<svg width="202" height="201" viewBox="0 0 202 201" fill="none" xmlns="http://www.w3.org/2000/svg">
<path d="M2.35071 199.634H194.952C204.048 185.327 204.005 165.645 194.624 151.485C194.088 150.675 193.506 149.834 193.417 148.866C193.276 147.33 194.387 146.005 195.287 144.751C200.016 138.17 200.065 129.098 197.32 121.473C194.577 113.848 189.405 107.37 184.163 101.19C191.382 96.1127 193.111 85.3568 189.324 77.386C185.537 69.4151 177.338 64.1931 168.751 62.16C176.39 58.9293 178.746 48.2024 174.792 40.9111C170.84 33.6197 162.384 29.6986 154.125 28.9322C156.998 19.4067 150.644 8.948 141.863 4.2695C133.082 -0.408997 122.598 -0.497783 112.701 0.531415C98.2201 2.03535 85.0217 5.22623 75.0758 15.8552C74.6862 13.9726 72.2129 13.545 70.2922 13.6247C56.755 14.1918 43.2921 19.7564 34.0674 29.6805C24.8445 39.6047 20.2548 53.9482 23.0343 67.21C9.5406 73.3417 3.97061 89.9248 4.29858 104.743C4.53594 115.501 7.90982 127.333 17.1635 132.825C7.53656 140.323 4.22247 154.86 9.64931 165.79C0.66558 174.17 -2.1484 188.289 2.35071 199.634Z" fill="#201708"/>
<path d="M183.598 99.5122C183.598 99.5122 216.188 121.56 193.125 148.876" stroke="#201708" stroke-width="1.1456" stroke-miterlimit="10" stroke-linecap="round" stroke-linejoin="round"/>
<path d="M26.4092 59.4113C26.8875 53.8449 28.4223 48.3819 30.6437 43.2177C32.8942 38.0681 35.9963 33.232 39.9663 29.175C43.9762 25.1669 48.8558 22.0069 54.1921 20.1206C59.541 18.2742 65.2161 17.5839 70.7806 17.9009C65.2215 18.2325 59.7186 19.2201 54.6143 21.2422C52.0884 22.3095 49.6386 23.5362 47.3501 25.0328C45.0779 26.5513 42.9851 28.3252 41.0716 30.2694C37.1505 34.0927 34.1571 38.7875 31.7273 43.716C30.5078 46.1876 29.475 48.7551 28.5944 51.3788C27.683 53.9971 26.9564 56.6788 26.4092 59.4113Z" fill="#FCFCFC"/>
<path d="M18.4522 132.688C15.1671 134.071 12.0904 135.837 9.49381 138.071C6.919 140.307 4.90047 143.138 4.22823 146.368C3.47083 149.585 4.02348 153.022 5.11247 156.28C6.21052 159.558 7.90109 162.669 9.64783 165.787C7.20711 163.18 5.06174 160.228 3.6031 156.867C2.8602 155.193 2.33292 153.408 2.02488 151.56C1.77664 149.702 1.80382 147.782 2.20608 145.914C3.03233 142.146 5.50386 138.937 8.48998 136.81C11.4779 134.654 14.9152 133.252 18.4522 132.688Z" fill="#201708"/>
<path d="M168.852 199.998L166.716 181.074C166.453 178.742 165.815 176.435 164.578 174.442C151.368 153.17 111.309 177.657 109.345 171.762C107.269 165.534 109.345 152.101 109.345 152.101L80.7451 151.242C80.7451 151.242 82.8216 165.536 80.7451 171.764C78.7809 177.658 38.722 153.171 25.5127 174.444C24.2751 176.437 23.6373 178.746 23.3746 181.076L21.2383 200H168.852V199.998Z" fill="#FCFCFC"/>
<path d="M80.582 172.069C80.582 172.069 96.5998 192.518 109.508 172.069C109.508 172.069 112.503 174.712 122.649 170.043C132.796 165.372 161.976 162.054 164.991 176.452C168.006 190.85 168.852 199.998 168.852 199.998H21.2383L24.5198 176.452C24.5198 176.452 30.6913 163.271 45.2903 165.611C59.8875 167.948 79.7449 175.542 80.582 172.069Z" fill="#E9C46A"/>
<path d="M21.2383 199.998L23.3746 181.074C23.6373 178.742 24.2751 176.435 25.5127 174.442C38.722 153.17 78.7809 177.657 80.7451 171.762C82.8216 165.535 80.7451 152.903 80.7451 152.903" stroke="#201708" stroke-width="1.1456" stroke-miterlimit="10" stroke-linecap="round" stroke-linejoin="round"/>
<path d="M109.345 152.903C109.345 152.903 107.268 165.535 109.345 171.762C111.309 177.657 151.368 153.17 164.577 174.442C165.815 176.435 166.453 178.744 166.715 181.074L168.852 199.998" stroke="#201708" stroke-width="1.1456" stroke-miterlimit="10" stroke-linecap="round" stroke-linejoin="round"/>
<path d="M144.099 112.721C135.818 136.142 116.97 154.871 95.0452 154.871C74.2112 154.871 56.155 137.96 47.3053 116.182L45.9971 112.721C45.9971 112.721 51.5018 110.365 47.9467 88.8265C47.9467 88.8265 81.1601 76.8911 86.3496 54.834C86.3496 54.834 106.223 76.8892 117.693 67.2894C117.693 67.2894 122.935 97.1144 143.434 92.4522C143.434 92.4522 140.64 109.164 145.539 108.207L144.099 112.721Z" fill="#FCFCFC"/>
<path d="M80.5829 102.858C80.5829 106.592 78.751 109.618 76.4897 109.618C74.2302 109.618 72.3965 106.59 72.3965 102.858C72.3965 99.1232 74.2284 96.0972 76.4897 96.0972C78.751 96.0972 80.5829 99.1232 80.5829 102.858Z" fill="#201708"/>
<path d="M63.3619 98.4329C64.9111 97.15 66.5256 96.2422 68.3321 95.5283C70.1169 94.8198 72.043 94.3813 74.0217 94.2998C76.004 94.2545 78.0352 94.6604 79.8091 95.5392C81.6392 96.3546 82.98 97.8675 84.0564 99.3479C84.185 99.5237 84.1452 99.7701 83.9694 99.8988C83.8353 99.9966 83.6595 99.9966 83.5273 99.9133L83.482 99.8843C81.9835 98.933 80.5611 98.0415 78.972 97.6936C77.4137 97.3149 75.8373 97.2152 74.2554 97.4309C72.6754 97.6537 71.1135 98.114 69.5769 98.7029C68.0694 99.3044 66.4857 100.033 65.1104 100.799L65.018 100.852C64.3077 101.247 63.4126 100.993 63.0158 100.283C62.6643 99.6523 62.8255 98.8768 63.3619 98.4329Z" fill="#201708"/>
<path d="M60.5966 96.493L64.63 99.0261C65.1229 99.336 65.2715 99.9865 64.9616 100.479C64.6518 100.972 64.0013 101.121 63.5084 100.811C63.4015 100.744 63.3091 100.657 63.2348 100.563L60.3212 96.7956C60.2505 96.705 60.2668 96.5746 60.3592 96.5039C60.4281 96.4495 60.5241 96.4477 60.5966 96.493Z" fill="#201708"/>
<path d="M109.51 102.858C109.51 106.593 111.342 109.619 113.603 109.619C115.864 109.619 117.696 106.591 117.696 102.858C117.696 99.1236 115.864 96.0977 113.603 96.0977C111.342 96.0977 109.51 99.1236 109.51 102.858Z" fill="#201708"/>
<path d="M124.982 100.799C123.609 100.033 122.023 99.3043 120.516 98.7027C118.981 98.1157 117.419 97.6536 115.837 97.4307C114.257 97.2151 112.679 97.3148 111.121 97.6935C109.532 98.0395 108.108 98.9329 106.611 99.8841L106.567 99.9113C106.383 100.027 106.14 99.9729 106.022 99.7899C105.933 99.6504 105.944 99.4728 106.036 99.346C107.113 97.8638 108.454 96.3526 110.284 95.5372C112.056 94.6584 114.087 94.2525 116.071 94.2978C118.05 94.3794 119.974 94.8179 121.761 95.5263C123.565 96.2403 125.182 97.1481 126.729 98.4309C127.356 98.9492 127.443 99.8769 126.925 100.502C126.465 101.056 125.684 101.189 125.075 100.85L124.982 100.799Z" fill="#201708"/>
<path d="M129.77 96.7948L126.857 100.562C126.5 101.022 125.838 101.107 125.378 100.75C124.918 100.393 124.833 99.732 125.19 99.2718C125.267 99.1721 125.362 99.0869 125.463 99.0235L129.497 96.4904C129.594 96.4288 129.723 96.4596 129.785 96.5556C129.83 96.6335 129.823 96.7278 129.77 96.7948Z" fill="#201708"/>
<path d="M94.4373 108.205C93.8411 110.007 93.2577 111.466 93.187 112.845C93.1127 113.53 93.2178 114.184 93.4389 114.893C93.6364 115.621 94.0513 116.328 94.4373 117.234C93.5168 117.004 92.6253 116.507 92.0201 115.675C91.3642 114.887 91.0417 113.769 91.116 112.716C91.2047 111.662 91.5925 110.692 92.1868 109.924C92.7721 109.158 93.5132 108.527 94.4373 108.205Z" fill="#201708"/>
<path d="M93.2842 126.009C96.5222 125.164 99.5645 124.373 102.369 123.091C103.765 122.45 105.049 121.649 106.265 120.718C107.472 119.757 108.454 118.571 109.509 117.233C109.266 118.886 108.555 120.547 107.403 121.87C106.26 123.197 104.797 124.22 103.239 124.974C101.654 125.668 99.9903 126.125 98.3051 126.299C96.6273 126.476 94.9222 126.447 93.2842 126.009Z" fill="#201708"/>
<path d="M45.2888 110.644C30.2458 115.596 27.4644 92.5441 33.1739 90.4766C38.8816 88.4092 44.7017 94.414 44.7017 94.414L45.2888 110.644Z" fill="#FCFCFC"/>
<path d="M149.028 111.548C164.599 114.445 164.272 91.2284 158.34 89.9419C152.406 88.6554 150.25 95.1604 150.25 95.1604L149.028 111.548Z" fill="#FCFCFC"/>
<path d="M145.541 108.206L144.099 112.721C135.818 136.142 116.97 154.871 95.0452 154.871C74.2112 154.871 56.155 137.96 47.3053 116.182L45.9971 111.34" stroke="#201708" stroke-width="1.1456" stroke-miterlimit="10" stroke-linecap="round" stroke-linejoin="round"/>
<path d="M85.0498 51.5576C86.8092 54.5492 88.6556 57.3777 90.6832 60.0104C92.7362 62.6142 94.9703 65.0242 97.5451 66.914C98.8081 67.8925 100.189 68.6825 101.626 69.3312C103.05 70.0234 104.574 70.4745 106.143 70.7898C109.294 71.4313 112.641 71.232 116.087 70.7608C113.079 72.475 109.502 73.4788 105.846 73.2396C102.173 73.0947 98.6033 71.5943 95.6625 69.4544C92.7543 67.2402 90.3969 64.448 88.6393 61.3803C86.8853 58.3181 85.5843 55.0094 85.0498 51.5576Z" fill="#201708"/>
</svg>
